<?xml version="1.0" standalone="no"?>
<!DOCTYPE svg PUBLIC "-//W3C//DTD SVG 1.1//EN" "http://www.w3.org/Graphics/SVG/1.1/DTD/svg11.dtd" >
<svg xmlns="http://www.w3.org/2000/svg" xmlns:xlink="http://www.w3.org/1999/xlink" version="1.1">
<metadata>
Created by FontForge 20170731 at Thu Mar 19 21:18:19 2020
 By Aleksey,,,
Copyright (c) 2020 by Jean at Fontastica. All rights reserved.
</metadata>
<defs>
<font id="VegasNova-Black" horiz-adv-x="383" >
  <font-face 
    font-family="Vegas Nova Black"
    font-weight="900"
    font-stretch="normal"
    units-per-em="1024"
    panose-1="0 0 10 0 0 0 0 0 0 0"
    ascent="819"
    descent="-205"
    x-height="586"
    cap-height="692"
    bbox="-287 -401 1933 893"
    underline-thickness="50"
    underline-position="-200"
    unicode-range="U+000D-2265"
  />
<missing-glyph horiz-adv-x="339" 
d="M30 0h279v683h-279v-683zM170 377l-107 281h214zM53 70v544l103 -272zM286 71l-102 271l102 271v-542zM63 25l107 282l107 -282h-214z" />
    <glyph glyph-name="f_f.liga" unicode="ff" horiz-adv-x="666" 
d="M627 350h-145v188q0 35 19 59.5t57 24.5q12 0 25 -6q11 -3 14 -4q6 -2 16 -4l12 -1v75l-8 2q-11 1 -28 5q-15 3 -31 3q-76 0 -114 -46.5t-38 -105.5v-190h-227v188q0 34 19.5 59t56.5 25q11 0 26 -5q5 -2 15 -4q9 -4 17 -5l11 -2v76l-8 2q-5 1 -29 5q-17 3 -32 3
q-76 0 -114.5 -46.5t-38.5 -105.5v-190h-61v-70h61v-280h77v280h227v-280h76v280h145v70z" />
    <glyph glyph-name="t_t.liga" unicode="tt" horiz-adv-x="636" 
d="M482 519h144v68h-144v105h-76v-105h-227v105h-77v-105h-62v-68h62v-380q0 -56 40 -104t113 -48q15 0 32 3q24 4 29 5l8 2v84l-15 -8q-32 -16 -54 -16q-36 0 -56 25.5t-20 58.5v378h227v-380q0 -57 39 -104.5t113 -47.5q16 0 31 3q17 4 28 5l8 2v76l-12 -1q-10 -2 -16 -4
q-10 -4 -14 -5q-13 -6 -25 -6q-37 0 -56.5 25t-19.5 59v378z" />
    <glyph glyph-name=".notdef" horiz-adv-x="339" 
d="M30 0h279v683h-279v-683zM170 377l-107 281h214zM53 70v544l103 -272zM286 71l-102 271l102 271v-542zM63 25l107 282l107 -282h-214z" />
    <glyph glyph-name=".null" horiz-adv-x="0" 
 />
    <glyph glyph-name="nonmarkingreturn" horiz-adv-x="341" 
 />
    <glyph glyph-name="CR" unicode="&#xd;" horiz-adv-x="256" 
 />
    <glyph glyph-name="space" unicode=" " horiz-adv-x="231" 
 />
    <glyph glyph-name="exclam" unicode="!" horiz-adv-x="177" 
d="M49 688v-251q0 -49 1 -148t1 -148v-8h74v8q0 49 1.5 148t1.5 148v251h-79zM90 0q22 0 34.5 15t12.5 31q0 15 -12.5 30t-34.5 15q-23 0 -36.5 -14.5t-13.5 -30.5q0 -17 13.5 -31.5t36.5 -14.5z" />
    <glyph glyph-name="quotedbl" unicode="&#x22;" horiz-adv-x="254" 
d="M40 688v-195h81v195h-81zM132 688v-195h82v195h-82z" />
    <glyph glyph-name="numbersign" unicode="#" horiz-adv-x="447" 
d="M143 -52l39 249h45l-35 -249h73l39 249h90v71h-81l18 100h76v70h-21v1h-45l38 249h-75l-39 -249h-46l37 249h-74l-39 -249h-90v-71h78l-16 -100h-75v-70h21v-1h44l-36 -249h74zM209 368h46l-18 -100h-43z" />
    <glyph glyph-name="dollar" unicode="$" horiz-adv-x="386" 
d="M155 -8v-47h77v47q58 13 86 55.5t28 91.5q0 54 -29.5 104t-84.5 112q-58 70 -76 98q-35 55 -35 100q0 33 18 54t55 21q72 0 72 -61v-108h80v108q0 45 -29.5 81.5t-84.5 47.5v26h-77v-26q-57 -12 -85.5 -53.5t-28.5 -89.5q0 -67 53 -146q7 -11 104 -127q35 -45 59 -99
q11 -28 11 -42q0 -33 -18.5 -56.5t-55.5 -23.5q-74 0 -74 53v117h-80v-117q0 -44 30 -76.5t85 -43.5z" />
    <glyph glyph-name="percent" unicode="%" horiz-adv-x="612" 
d="M44 638v-210q0 -38 29.5 -67t79.5 -29q53 0 81.5 28t28.5 68v210q0 40 -28.5 68t-81.5 28q-52 0 -80.5 -28t-28.5 -68zM572 659l-65 42l-467 -648l65 -39zM187 638v-210q0 -26 -34 -26q-30 0 -30 26v210q0 27 30 27q34 0 34 -27zM327 276v-212q0 -40 28.5 -67.5
t81.5 -27.5q52 0 80 28t28 67v212q0 40 -27.5 67t-80.5 27q-54 0 -82 -26.5t-28 -67.5zM468 276v-212q0 -25 -31 -25q-32 0 -32 25v212q0 25 32 25q31 0 31 -25z" />
    <glyph glyph-name="ampersand" unicode="&#x26;" horiz-adv-x="407" 
d="M40 272v-182q0 -48 44.5 -75t107.5 -27t107.5 27t44.5 75v207h23v69h-23v74h-80v-74h-71q-29 0 -51 11.5t-22 30.5v143q0 33 18 55t55 22q53 0 66 -46q5 -19 5 -45v-14.5v-15.5v-11v-8h80v8q0 7 0.5 23t0.5 24q0 39 -9 63q-15 39 -53 66.5t-90 27.5q-75 0 -114 -46
t-39 -103v-142q0 -45 34 -73q-34 -24 -34 -64zM264 297v-208q0 -13 -24 -23q-21 -7 -48 -7q-28 0 -49 7q-23 8 -23 23v183q0 12 26 18q22 7 47 7h71z" />
    <glyph glyph-name="quotesingle" unicode="'" horiz-adv-x="161" 
d="M40 688v-195h81v195h-81z" />
    <glyph glyph-name="parenleft" unicode="(" horiz-adv-x="277" 
d="M232 688h-78l-2 -7l-1 -2q-7 -16 -23.5 -49.5t-24.5 -52.5q-63 -150 -63 -273q0 -160 109 -373q2 -2 2 -4q2 -2 3 -4l3 -4h80l-4 10q-3 5 -4 11q-8 17 -25.5 55t-30 67t-21.5 56q-33 93 -33 186q0 137 73 285l21 43q15 29 17 47z" />
    <glyph glyph-name="parenright" unicode=")" horiz-adv-x="286" 
d="M130 688h-89l8 -12q52 -80 85 -182.5t33 -190.5q0 -119 -73 -288q-13 -36 -25 -57q-9 -12 -10 -13l-11 -14l-8 -12h89l3 4q1 2 3 4q0 1 1 3v1q110 203 110 372q0 94 -28.5 181t-84.5 199z" />
    <glyph glyph-name="asterisk" unicode="*" horiz-adv-x="333" 
d="M167 493l-2 3q-9 13 -31 39l-7 9l-58 -48l35 -46q-20 -7 -54 -16l-10 -2l37 -78l11 8q20 16 39 22v-62h77v63q14 -5 35 -17q2 -2 7 -4l11 -6l36 70l-66 23l34 45l-51 48l-7 -8q-1 -1 -25 -28q-5 -5 -11 -15z" />
    <glyph glyph-name="plus" unicode="+" horiz-adv-x="565" 
d="M247 254v-207h77v207h201v70h-201v190h-77v-190h-207v-70h207z" />
    <glyph glyph-name="comma" unicode="," horiz-adv-x="220" 
d="M98 90l-58 -168h81l59 168h-82z" />
    <glyph glyph-name="hyphen" unicode="-" horiz-adv-x="347" 
d="M40 410v-70h267v70h-267z" />
    <glyph glyph-name="period" unicode="." horiz-adv-x="177" 
d="M90 0q22 0 34.5 15t12.5 31q0 15 -12.5 30t-34.5 15q-23 0 -36.5 -14.5t-13.5 -30.5q0 -17 13.5 -31.5t36.5 -14.5z" />
    <glyph glyph-name="slash" unicode="/" horiz-adv-x="283" 
d="M166 688l-126 -786h77l126 786h-77z" />
    <glyph glyph-name="zero" unicode="0" horiz-adv-x="386" 
d="M40 548v-408q0 -58 38.5 -105t114.5 -47t114.5 47t38.5 105v408q0 59 -38.5 105.5t-114.5 46.5t-114.5 -47t-38.5 -105zM266 548v-408q0 -34 -18 -57.5t-55 -23.5q-38 0 -55.5 23t-17.5 58v408q0 35 17.5 57.5t55.5 22.5q73 0 73 -80z" />
    <glyph glyph-name="one" unicode="1" horiz-adv-x="251" 
d="M136 550v-550h75v692h-75v-8q0 -48 -14 -61.5t-72 -13.5h-10v-69h10q57 0 86 10z" />
    <glyph glyph-name="two" unicode="2" horiz-adv-x="390" 
d="M40 48v-55h310v72h-235q2 8 13 36q9 20 26 54l48 85q50 90 58 104q80 142 80 188q0 77 -42 124.5t-109 47.5q-66 0 -107.5 -42.5t-41.5 -110.5v-121h74v121q0 40 19.5 61t55.5 21q39 0 63.5 -39.5t9.5 -76.5q-49 -115 -75 -159q-48 -78 -86 -152q-61 -111 -61 -158z" />
    <glyph glyph-name="three" unicode="3" horiz-adv-x="386" 
d="M44 276v-138q0 -58 37 -104t112 -46q76 0 112.5 45.5t36.5 104.5v111q0 72 -45 110q45 40 45 103v89q0 58 -37 103.5t-112 45.5t-112 -45.5t-37 -103.5v-115h76v115q0 77 73 77q37 0 55 -22t18 -55v-89q0 -29 -19 -48t-54 -19h-97v-69h97q37 0 55 -21.5t18 -54.5v-112
q0 -33 -18 -56t-55 -23q-38 0 -55.5 22.5t-17.5 56.5v144z" />
    <glyph glyph-name="four" unicode="4" horiz-adv-x="433" 
d="M212 178v-178h78v178h103v68h-103v103h-78v-103h-73q100 230 100 407v39h-79v-8q0 -116 -33 -232q-34 -113 -73 -198l-9 -19q-5 -10 -5 -22v-35h172z" />
    <glyph glyph-name="five" unicode="5" horiz-adv-x="384" 
d="M129 200h-75v-8q0 -7 -0.5 -23t-0.5 -24q0 -57 37 -107.5t109 -50.5q76 0 110.5 46.5t34.5 105.5v182q0 53 -38 87.5t-107 34.5q-36 0 -69 -14l1 193h200v70h-277v-395h78v8q0 35 14 52t53 17q72 0 72 -53v-182q0 -32 -18.5 -56.5t-53.5 -24.5q-30 0 -50 26.5t-20 54.5
v61z" />
    <glyph glyph-name="six" unicode="6" horiz-adv-x="375" 
d="M40 546v-403q0 -58 37 -106.5t111 -48.5q76 0 111.5 48t35.5 107v153q0 56 -38 92t-110 36q-39 0 -71 -13v135q0 34 17.5 58t54.5 24q52 0 65 -49q6 -23 6 -46v-41v-8h76v8q0 7 0.5 23t0.5 24q0 28 -7 54t-22.5 51t-46 40.5t-72.5 15.5q-52 0 -87 -26t-48 -59t-13 -69z
M259 297v-154q0 -34 -18 -59.5t-53 -25.5q-37 0 -54.5 25.5t-17.5 59.5v154q0 57 71 57q33 0 52.5 -15.5t19.5 -41.5z" />
    <glyph glyph-name="seven" unicode="7" horiz-adv-x="449" 
d="M307 621l-187 -618h82l204 689h-366v-71h267z" />
    <glyph glyph-name="eight" unicode="8" horiz-adv-x="386" 
d="M40 249v-111q0 -57 39 -103.5t114 -46.5q76 0 114.5 46t38.5 104v111q0 71 -47 110q47 39 47 103v89q0 58 -39 103.5t-114 45.5t-114 -46t-39 -103v-89q0 -61 49 -103q-49 -38 -49 -110zM269 551v-89q0 -30 -20 -48t-56 -18q-37 0 -56.5 18t-19.5 48v89q0 34 18.5 55.5
t57.5 21.5q38 0 57 -22t19 -55zM269 250v-112q0 -33 -19.5 -56t-56.5 -23q-38 0 -57 23t-19 56v112q0 32 19 53.5t57 21.5q37 0 56.5 -21.5t19.5 -53.5z" />
    <glyph glyph-name="nine" unicode="9" horiz-adv-x="375" 
d="M335 142v403q0 58 -36 106.5t-111 48.5q-76 0 -112 -48t-36 -107v-153q0 -55 39 -91.5t110 -36.5q41 0 70 12v-134q0 -34 -17.5 -58.5t-53.5 -24.5q-53 0 -66 49q-6 23 -6 46v42v8h-76v-62q0 -36 13 -69t48 -59t87 -26q76 0 111.5 47t35.5 107zM116 391v154q0 34 17.5 59
t54.5 25q36 0 53.5 -25t17.5 -59v-154q0 -57 -70 -57q-73 0 -73 57z" />
    <glyph glyph-name="colon" unicode=":" horiz-adv-x="177" 
d="M90 303q21 0 34 14.5t13 29.5q0 16 -12 32t-35 16q-24 0 -37 -15.5t-13 -32.5q0 -15 14 -29.5t36 -14.5zM90 0q22 0 34.5 15t12.5 31q0 15 -12.5 30t-34.5 15q-23 0 -36.5 -14.5t-13.5 -30.5q0 -17 13.5 -31.5t36.5 -14.5z" />
    <glyph glyph-name="semicolon" unicode=";" horiz-adv-x="221" 
d="M127 303q22 0 35.5 14.5t13.5 29.5q0 17 -12.5 32.5t-36.5 15.5q-23 0 -35 -16t-12 -32q0 -15 12.5 -29.5t34.5 -14.5zM98 90l-58 -168h81l60 168h-83z" />
    <glyph glyph-name="less" unicode="&#x3c;" horiz-adv-x="415" 
d="M40 300l335 -192v84l-221 129l221 126v85l-335 -191v-41z" />
    <glyph glyph-name="equal" unicode="=" horiz-adv-x="411" 
d="M40 384v-69h331v69h-331zM40 263v-69h331v69h-331z" />
    <glyph glyph-name="greater" unicode="&#x3e;" horiz-adv-x="417" 
d="M40 192v-84l337 192v41l-337 190v-84l224 -126z" />
    <glyph glyph-name="question" unicode="?" horiz-adv-x="384" 
d="M120 557q0 31 18 51t55 20t55 -35q16 -28 16 -65q0 -33 -41 -83q-13 -17 -71 -78l-4 -4v-6q0 -17 4.5 -47.5t5.5 -41.5q2 -37 2 -110v-8h76v8q0 122 -7 182q70 79 75 85q40 56 40 103q0 27 -7.5 54.5t-23.5 55t-47.5 45t-72.5 17.5q-73 0 -113 -44t-40 -99v-121h80v121z
M194 0q23 0 36 14.5t13 31.5q0 16 -13.5 30.5t-35.5 14.5q-23 0 -36.5 -14.5t-13.5 -30.5q0 -17 13.5 -31.5t36.5 -14.5z" />
    <glyph glyph-name="at" unicode="@" horiz-adv-x="690" 
d="M40 291q0 -49 8 -91.5t29 -85t54.5 -72.5t88.5 -48.5t126 -18.5q113 0 186 57l3 3v81l-21 4l-3 -6q-20 -35 -65 -53t-100 -18q-69 0 -117 20t-72.5 56.5t-34.5 77.5t-10 94q0 47 6.5 91t25 93.5t48 85.5t79 60t114.5 24q193 0 193 -208q0 -69 -19 -134q-29 -90 -83 -90
q-6 0 -10 9q-2 6 -2 18v12l30 284h-74v-9q-27 14 -62 14q-39 0 -68.5 -15t-45.5 -39.5t-23.5 -48.5t-10.5 -50q-10 -98 -10 -116q0 -23 5 -44.5t17.5 -44t38 -36.5t60.5 -14q58 0 96 38q21 -26 59 -26q99 0 145 120q29 78 29 173q0 53 -12.5 98.5t-40.5 87t-82 65.5t-130 24
q-80 0 -142.5 -29t-99.5 -73.5t-61.5 -103t-33 -111.5t-8.5 -105zM377 236q-18 -35 -56 -35q-27 0 -39 22q-9 17 -9 47q0 18 10 113q9 90 75 90q28 0 40 -19q9 -15 9 -44q0 -7 -11 -109q-5 -41 -19 -65z" />
    <glyph glyph-name="A" unicode="A" horiz-adv-x="438" 
d="M118 0l24 122h155l24 -122h77l-143 692h-71l-144 -692h78zM157 191l63 307l61 -307h-124z" />
    <glyph glyph-name="B" unicode="B" horiz-adv-x="395" 
d="M40 0h169q69 0 107.5 37t38.5 90v149q0 55 -43 88q34 33 34 74v128q0 55 -44.5 90.5t-115.5 35.5h-146v-692zM115 622h71q36 0 61 -15t25 -41v-130q0 -16 -20 -27t-44 -11h-93v224zM115 328h94q32 0 52 -14.5t20 -37.5v-149q0 -26 -19.5 -41.5t-52.5 -15.5h-94v258z" />
    <glyph glyph-name="C" unicode="C" horiz-adv-x="384" 
d="M40 549v-410q0 -58 38 -104.5t114 -46.5q75 0 113 46.5t38 104.5v134h-74v-135q0 -32 -20.5 -56.5t-56.5 -24.5q-37 0 -57.5 24.5t-20.5 56.5v413q0 33 20 56t58 23q36 0 56.5 -23.5t20.5 -55.5v-136h74v134q0 58 -37.5 104.5t-113.5 46.5t-114 -46.5t-38 -104.5z" />
    <glyph glyph-name="D" unicode="D" horiz-adv-x="395" 
d="M40 692v-692h149q72 0 119 36t47 91v439q0 57 -46.5 91.5t-119.5 34.5h-149zM189 70h-74v552h74q39 0 65.5 -14.5t26.5 -41.5v-439q0 -26 -27.5 -41.5t-64.5 -15.5z" />
    <glyph glyph-name="E" unicode="E" horiz-adv-x="356" 
d="M115 622h200v70h-275v-692h276v70h-201v258h201v70h-201v224z" />
    <glyph glyph-name="F" unicode="F" horiz-adv-x="356" 
d="M115 622h200v70h-275v-692h75v328h201v70h-201v224z" />
    <glyph glyph-name="G" unicode="G" horiz-adv-x="394" 
d="M162 366v-67h107v-161q0 -32 -20.5 -56.5t-56.5 -24.5q-37 0 -57.5 24.5t-20.5 56.5v413q0 34 19.5 56.5t58.5 22.5q36 0 56.5 -23.5t20.5 -55.5v-136h74v134q0 58 -37.5 104.5t-113.5 46.5t-114 -46.5t-38 -104.5v-410q0 -58 38 -104.5t114 -46.5t113.5 46.5t37.5 104.5
v227h-181z" />
    <glyph glyph-name="H" unicode="H" horiz-adv-x="395" 
d="M355 692h-75v-294h-165v294h-75v-692h75v328h165v-328h75v692z" />
    <glyph glyph-name="I" unicode="I" horiz-adv-x="155" 
d="M40 0h75v692h-75v-692z" />
    <glyph glyph-name="J" unicode="J" horiz-adv-x="384" 
d="M344 139v553h-74v-554q0 -31 -21 -56t-56 -25q-37 0 -57.5 24.5t-20.5 56.5v135h-74v-134q0 -58 38 -104.5t114 -46.5q75 0 113 46.5t38 104.5z" />
    <glyph glyph-name="K" unicode="K" horiz-adv-x="458" 
d="M114 229q1 2 2 3t3 4l4 6l22 35q18 26 25 37l150 -314h82l-186 386l202 306h-86l-218 -329v329h-74v-692h74v156q0 14 -2 38q-2 18 2 35z" />
    <glyph glyph-name="L" unicode="L" horiz-adv-x="346" 
d="M115 70v622h-75v-692h266v70h-191z" />
    <glyph glyph-name="M" unicode="M" horiz-adv-x="475" 
d="M40 688v-688h77l-1 359l91 -359h61l92 361l-1 -361h76v688h-72l-126 -497l-125 497h-72z" />
    <glyph glyph-name="N" unicode="N" horiz-adv-x="398" 
d="M42 692l1 -692h74v453l171 -453h68v692h-75v-459l-172 459h-67z" />
    <glyph glyph-name="O" unicode="O" 
d="M40 549v-410q0 -58 38 -104.5t114 -46.5q75 0 113 46.5t38 104.5v410q0 58 -37.5 104.5t-113.5 46.5t-114 -46.5t-38 -104.5zM269 551v-413q0 -31 -21 -56t-56 -25q-37 0 -57.5 24.5t-20.5 56.5v413q0 33 20 56t58 23q36 0 56.5 -23.5t20.5 -55.5z" />
    <glyph glyph-name="P" unicode="P" horiz-adv-x="395" 
d="M40 692v-692h75v327h94q69 0 107.5 37.5t38.5 89.5v111q0 53 -38.5 90t-107.5 37h-169zM281 565v-111q0 -26 -19 -41t-53 -15h-94v223h94q33 0 52.5 -15t19.5 -41z" />
    <glyph glyph-name="Q" unicode="Q" horiz-adv-x="400" 
d="M360 15l-36 45q19 33 19 79v410q0 58 -37.5 104.5t-113.5 46.5t-114 -46.5t-38 -104.5v-410q0 -58 38 -104.5t114 -46.5q41 0 79 20l31 -39zM185 123l41 -58q-16 -8 -34 -8q-37 0 -57.5 24.5t-20.5 56.5v413q0 33 20 56t58 23q36 0 56.5 -23.5t20.5 -55.5v-419l-25 32z
" />
    <glyph glyph-name="R" unicode="R" horiz-adv-x="395" 
d="M115 0v328h94q32 0 52 -14.5t20 -37.5v-276h74v276q0 55 -43 88q34 33 34 74v128q0 55 -44.5 90.5t-115.5 35.5h-146v-692h75zM115 622h71q36 0 61 -15t25 -41v-130q0 -16 -20 -27t-44 -11h-93v224z" />
    <glyph glyph-name="S" unicode="S" horiz-adv-x="382" 
d="M115 273h-75v-8q0 -26 0.5 -76.5t0.5 -76.5q0 -53 40.5 -88.5t110.5 -35.5q73 0 110.5 43.5t37.5 99.5q0 63 -29 116t-83 117q-9 12 -25 32t-28.5 36t-21.5 30q-34 54 -34 97q0 30 19 49.5t55 19.5q69 0 73 -54q1 -16 1 -52l1 -85v-22h75v15q0 113 -2 145
q-3 54 -40.5 89.5t-107.5 35.5q-73 0 -111.5 -42.5t-38.5 -98.5q0 -71 54 -148q14 -19 50 -62t53 -67q64 -97 64 -151q0 -31 -18.5 -51.5t-53.5 -20.5q-70 0 -76 54v16q0 23 -0.5 68t-0.5 68v8z" />
    <glyph glyph-name="T" unicode="T" horiz-adv-x="430" 
d="M390 622v70h-350v-70h139v-622h72v622h139z" />
    <glyph glyph-name="U" unicode="U" 
d="M343 139v553h-74v-554q0 -31 -21 -56t-56 -25q-37 0 -57.5 24.5t-20.5 56.5v554h-74v-553q0 -58 38 -104.5t114 -46.5q75 0 113 46.5t38 104.5z" />
    <glyph glyph-name="V" unicode="V" horiz-adv-x="487" 
d="M447 692h-82l-122 -520l-123 520h-80l166 -692h75z" />
    <glyph glyph-name="W" unicode="W" horiz-adv-x="487" 
d="M447 692h-80l-25 -377l-64 377h-69l-64 -377l-25 377h-80l53 -692h77l72 444l75 -444h78z" />
    <glyph glyph-name="X" unicode="X" horiz-adv-x="466" 
d="M192 347l-134 -347h78l100 250l110 -250h80l-149 347l132 345h-79l-96 -250l-112 250h-82z" />
    <glyph glyph-name="Y" unicode="Y" horiz-adv-x="449" 
d="M200 0h72v233q0 12 -2 32t-2 24q-2 29 3 54l138 349h-79l-96 -250l-112 250h-82l107 -239q13 -24 30 -55q16 -31 22 -56q4 -22 4 -54q-4 -36 -4 -57z" />
    <glyph glyph-name="Z" unicode="Z" horiz-adv-x="419" 
d="M275 624l-235 -624h328v68h-223l234 624h-326v-68h222z" />
    <glyph glyph-name="bracketleft" unicode="[" horiz-adv-x="244" 
d="M40 688v-769h164v70h-86v629h86v70h-164z" />
    <glyph glyph-name="backslash" unicode="\" horiz-adv-x="283" 
d="M40 688l126 -786h77l-126 786h-77z" />
    <glyph glyph-name="bracketright" unicode="]" horiz-adv-x="234" 
d="M40 -11v-70h154v769h-154v-70h74v-629h-74z" />
    <glyph glyph-name="asciicircum" unicode="^" horiz-adv-x="436" 
d="M200 688l-160 -134h112l67 53l64 -53h113l-157 134h-39z" />
    <glyph glyph-name="underscore" unicode="_" horiz-adv-x="449" 
d="M40 -4v-72h369v72h-369z" />
    <glyph glyph-name="grave" unicode="`" horiz-adv-x="299" 
d="M273 642l-188 103l-59 -59l201 -98z" />
    <glyph glyph-name="a" unicode="a" 
d="M40 295v-155q0 -59 37.5 -106t114.5 -47q75 0 113 47.5t38 105.5v293q0 58 -38 105.5t-113 47.5t-113.5 -47.5t-38.5 -105.5v-106h75v106q0 33 20 58.5t57 25.5q36 0 56 -25.5t20 -58.5v-138h-228zM268 225v-85q0 -34 -19.5 -59t-56.5 -25q-38 0 -57.5 25t-19.5 59v85
h153z" />
    <glyph glyph-name="b" unicode="b" 
d="M40 692v-552q0 -58 38 -106t114 -48t113.5 47.5t37.5 106.5v293q0 58 -38 105.5t-113 47.5q-44 0 -77 -17v123h-75zM268 433v-293q0 -33 -20 -58.5t-56 -25.5q-37 0 -57 25.5t-20 58.5v293q0 33 20 58.5t57 25.5t56.5 -25t19.5 -59z" />
    <glyph glyph-name="c" unicode="c" 
d="M268 327h75v106q0 58 -38 105.5t-113 47.5t-113.5 -47.5t-38.5 -105.5v-293q0 -58 38 -106t114 -48t113.5 48t37.5 107v105h-75v-105q0 -33 -20 -59t-56 -26q-38 0 -57.5 25t-19.5 59v293q0 34 19.5 59t57.5 25q36 0 56 -25.5t20 -58.5v-106z" />
    <glyph glyph-name="d" unicode="d" 
d="M40 433v-293q0 -58 38 -106t114 -48t113.5 47.5t37.5 106.5v552h-75v-123q-33 17 -76 17q-75 0 -113.5 -47.5t-38.5 -105.5zM268 433v-293q0 -33 -20 -58.5t-56 -25.5q-38 0 -57.5 25t-19.5 59v293q0 34 19.5 59t57.5 25q36 0 56 -25.5t20 -58.5z" />
    <glyph glyph-name="e" unicode="e" 
d="M343 280v156q0 59 -37.5 105t-113.5 46t-114 -46t-38 -105v-293q0 -59 38.5 -107t113.5 -48q76 0 113.5 48t37.5 107v105h-75v-8q0 -5 0.5 -22.5t0.5 -29.5q2 -32 -4 -61q-13 -69 -73 -69q-37 0 -57 25.5t-20 59.5v137h228zM115 350v86q0 35 19 59t58 24q37 0 56.5 -25
t19.5 -58v-86h-153z" />
    <glyph glyph-name="f" unicode="f" horiz-adv-x="365" 
d="M102 280v-280h77v280h147v70h-147v188q0 34 19.5 59t56.5 25q11 0 26 -5q5 -2 15 -4q9 -4 17 -5l11 -2v76l-8 2q-5 1 -29 5q-17 3 -32 3q-76 0 -114.5 -46.5t-38.5 -105.5v-190h-61v-70h61z" />
    <glyph glyph-name="g" unicode="g" horiz-adv-x="384" 
d="M42 -1q6 -58 42 -99.5t109 -41.5q75 0 113 47.5t38 105.5v425q0 59 -37.5 105t-113.5 46t-114 -46t-38 -105v-293q0 -66 42.5 -110.5t109.5 -44.5q39 0 76 20q-1 -33 -20.5 -58t-55.5 -25q-66 0 -76 74h-75zM269 436v-293q0 -33 -20 -59t-56 -26q-37 0 -57 25.5t-20 59.5
v293q0 35 19 59t58 24q37 0 56.5 -25t19.5 -58z" />
    <glyph glyph-name="h" unicode="h" 
d="M40 692v-692h75v433q0 33 20 58.5t57 25.5q36 0 56 -25.5t20 -58.5v-433h75v433q0 58 -38 105.5t-113 47.5q-44 0 -77 -17v123h-75z" />
    <glyph glyph-name="i" unicode="i" horiz-adv-x="170" 
d="M86 601q23 0 35 15.5t12 31.5t-13 30t-34 14q-22 0 -36 -14t-14 -30q0 -17 13 -32t37 -15zM48 587v-587h74v587h-74z" />
    <glyph glyph-name="j" unicode="j" horiz-adv-x="161" 
d="M75 601q23 0 35 15.5t12 31.5t-13 30t-34 14q-22 0 -36 -14t-14 -30q0 -17 13 -32t37 -15zM112 587h-75v-578q0 -86 -97 -86h-10v-67h10q89 0 130.5 42t41.5 111v578z" />
    <glyph glyph-name="k" unicode="k" horiz-adv-x="458" 
d="M220 275l197 311l-84 1l-218 -338v443h-75v-692h75v8v56v35v11v3q0 1 32 52l29 45l151 -210h91z" />
    <glyph glyph-name="l" unicode="l" horiz-adv-x="155" 
d="M40 0h75v692h-75v-692z" />
    <glyph glyph-name="m" unicode="m" horiz-adv-x="611" 
d="M571 0v434q0 59 -37.5 105.5t-113.5 46.5q-71 0 -114 -46q-41 46 -114 46q-76 0 -114 -46.5t-38 -105.5v-434h75v434q0 35 19 59t58 24q37 0 56.5 -25t19.5 -58v-434h75v434q0 35 19 59t58 24q38 0 57 -24.5t19 -58.5v-434h75z" />
    <glyph glyph-name="n" unicode="n" 
d="M268 434v-434h75v434q0 59 -37 105.5t-114 46.5q-76 0 -114 -46.5t-38 -105.5v-434h75v434q0 35 19 59t58 24q37 0 56.5 -25t19.5 -58z" />
    <glyph glyph-name="o" unicode="o" 
d="M343 140v293q0 58 -38 105.5t-113 47.5t-113.5 -47.5t-38.5 -105.5v-293q0 -58 38 -106t114 -48t113.5 47.5t37.5 106.5zM115 140v293q0 34 19.5 59t57.5 25q36 0 56 -25.5t20 -58.5v-293q0 -33 -20 -58.5t-56 -25.5q-38 0 -57.5 25t-19.5 59z" />
    <glyph glyph-name="p" unicode="p" 
d="M343 143v293q0 59 -37.5 105t-113.5 46t-114 -46t-38 -105v-552h75v123q35 -19 77 -19q76 0 113.5 48t37.5 107zM115 143v293q0 34 19.5 58.5t57.5 24.5t57 -24.5t19 -58.5v-293q0 -33 -20 -59t-56 -26q-37 0 -57 26t-20 59z" />
    <glyph glyph-name="q" unicode="q" 
d="M343 -116v552q0 59 -37.5 105t-113.5 46t-114 -46t-38 -105v-293q0 -59 38.5 -107t113.5 -48q39 0 76 20v-124h75zM115 143v293q0 35 19 59t58 24q37 0 56.5 -25t19.5 -58v-293q0 -33 -20 -59t-56 -26q-37 0 -57 25.5t-20 59.5z" />
    <glyph glyph-name="r" unicode="r" 
d="M40 434v-434h75v434q0 35 19 59t58 24q35 0 55.5 -24t20.5 -55v-33h75v33q0 57 -38.5 102.5t-112.5 45.5q-76 0 -114 -46.5t-38 -105.5z" />
    <glyph glyph-name="s" unicode="s" horiz-adv-x="380" 
d="M191 -12q74 0 111.5 44t37.5 101q0 44 -30 84t-84 87l-40 38q-17 14 -35 36q-34 37 -34 71q0 69 72 69q33 0 55 -15t22 -40v-132h74v132q0 52 -40 88t-108 36q-73 0 -112 -41.5t-39 -96.5q0 -71 87 -156q9 -8 32.5 -26.5t34.5 -29.5q70 -67 70 -105q0 -30 -19.5 -51.5
t-54.5 -21.5q-34 0 -56 15t-22 39v135h-74v-135q0 -53 41.5 -89t110.5 -36z" />
    <glyph glyph-name="t" unicode="t" horiz-adv-x="335" 
d="M179 141v378h146v68h-146v105h-77v-105h-62v-68h62v-380q0 -56 40 -104t113 -48q15 0 32 3q24 4 29 5l8 2v84l-15 -8q-32 -16 -54 -16q-36 0 -56 25.5t-20 58.5z" />
    <glyph glyph-name="u" unicode="u" 
d="M343 587h-75v-445q0 -33 -20 -58.5t-56 -25.5q-38 0 -57.5 25t-19.5 59v445h-75v-445q0 -59 38 -106.5t114 -47.5q40 0 70.5 14.5t47.5 38t25 49t8 52.5v445z" />
    <glyph glyph-name="v" unicode="v" horiz-adv-x="423" 
d="M37 587l139 -587h72l138 587h-77l-97 -405l-96 405h-79z" />
    <glyph glyph-name="w" unicode="w" horiz-adv-x="527" 
d="M40 587l53 -587h77l71 377l77 -377h78l51 587h-78l-27 -321l-65 321h-68l-63 -318l-27 318h-79z" />
    <glyph glyph-name="x" unicode="x" horiz-adv-x="458" 
d="M188 290l-144 -290h81l105 208l104 -208h80l-143 290l147 297h-80l-108 -214l-108 214h-82z" />
    <glyph glyph-name="y" unicode="y" horiz-adv-x="382" 
d="M269 587h75v-576q0 -58 -38 -105.5t-113 -47.5q-73 0 -109 41.5t-42 99.5h75q10 -74 76 -74q36 0 55.5 25t20.5 58q-37 -20 -76 -20q-67 0 -109.5 44.5t-42.5 110.5v444h75v-444q0 -34 20 -59.5t57 -25.5q36 0 56 26t20 59v444z" />
    <glyph glyph-name="z" unicode="z" horiz-adv-x="454" 
d="M397 69h-242l259 518h-357v-68h243l-260 -519h357v69z" />
    <glyph glyph-name="braceleft" unicode="{" horiz-adv-x="291" 
d="M103 274q0 -3 0.5 -51t0.5 -84q-1 -69 -1 -155q0 -32 23.5 -52.5t65.5 -20.5h59v68h-10q-5 0 -16 -0.5t-17 -0.5h-10q-6 0 -9 1q-5 2 -5 5v292q0 17 -8 32q8 13 8 33v273q1 2 7 3q6 2 19 2q4 0 12 -0.5t12 -0.5h17v70h-59q-41 0 -65 -21.5t-24 -52.5v-271q-4 0 -12 0.5
t-13 0.5h-38v-71h10q9 0 26.5 0.5t25.5 0.5h1z" />
    <glyph glyph-name="bar" unicode="|" horiz-adv-x="157" 
d="M40 688v-786h77v786h-77z" />
    <glyph glyph-name="braceright" unicode="}" horiz-adv-x="291" 
d="M183 273h6h20h32h10v71h-65v270q0 30 -22.5 52t-62.5 22h-61v-70h44h10q6 0 8 -1q4 0 4 -3v-273q0 -20 8 -33q-8 -15 -8 -32v-292q0 -6 -9 -6q-5 0 -16 0.5t-17 0.5h-24v-68h61q40 0 62.5 21.5t22.5 51.5v155q0 131 -3 134z" />
    <glyph glyph-name="asciitilde" unicode="~" horiz-adv-x="365" 
d="M140 604l1 -1q12 -9 13 -10q10 -8 16 -12q44 -36 83 -36q36 0 54 22.5t18 48.5q0 39 -38 61q0 1 -3 2l-3 2q-5 3 -10 3h-38v-64q-9 6 -29 22q-47 36 -84 36q-15 0 -41 -13q-15 -11 -28 -24l-2 -2v-32q0 -41 39 -61l4 -3q1 0 5 -2q8 -2 12 -2h31v65zM245 613l9 1l-1 -3z
M121 608l-1 1v1l1 2q4 0 10 -3z" />
    <glyph glyph-name="exclamdown" unicode="&#xa1;" horiz-adv-x="177" 
d="M90 579q-24 0 -37 -15t-13 -32q0 -16 14 -30t36 -14q23 0 35 14t12 30t-12 31.5t-35 15.5zM125 446h-74v-8q0 -49 -1 -148t-1 -148v-251h79v251q0 49 -1.5 148t-1.5 148v8z" />
    <glyph glyph-name="cent" unicode="&#xa2;" 
d="M153 -8v-47h77v47q58 14 85.5 58t27.5 93v101l-79 6v-107q0 -30 -16.5 -55.5t-47.5 -25.5q-30 0 -44 6q-18 7 -27.5 30t-9.5 45v293q0 30 17 55t48 25q48 0 64.5 -26t16.5 -71q0 -13 -0.5 -38t-0.5 -37v-8h79v100q0 50 -27 93t-86 54v44h-77v-44q-58 -12 -85.5 -55
t-27.5 -92v-293q0 -49 28 -93t85 -58z" />
    <glyph glyph-name="sterling" unicode="&#xa3;" horiz-adv-x="408" 
d="M202 348l-60 245v3v1q11 60 69 60q44 0 60 -36q14 -27 14 -68v-8h80v8q0 29 -6.5 56t-21.5 55t-47 44.5t-77 16.5q-76 0 -112.5 -38.5t-36.5 -97.5v-2v-3l54 -236h-78v-72h82l-65 -274h311v72h-215l51 202h123v72h-125z" />
    <glyph glyph-name="yen" unicode="&#xa5;" horiz-adv-x="449" 
d="M271 336v2l138 354h-79l-96 -250l-112 250h-82l8 -20l25 -52q25 -53 55 -124q12 -25 38 -82l33 -73v-5h-128v-70h128l1 -51h-129v-70h129v-145h72v145h129v70h-129l-1 51h130v70h-130z" />
    <glyph glyph-name="brokenbar" unicode="&#xa6;" horiz-adv-x="157" 
d="M40 688v-329h77v329h-77zM40 249v-347h77v347h-77z" />
    <glyph glyph-name="section" unicode="&#xa7;" horiz-adv-x="380" 
d="M340 489v102q0 47 -43.5 72.5t-104.5 25.5q-66 0 -108.5 -30t-42.5 -81q0 -19 11 -39t27.5 -35.5t32 -28t28.5 -21.5l13 -8q-57 -9 -88.5 -43.5t-23.5 -80.5q3 -17 16 -34q22 -30 50 -52q5 -5 21 -15q9 -7 22 -13q51 -32 68 -46q42 -32 42 -50q0 -22 -19 -34t-50 -12
q-29 0 -49.5 8t-20.5 23v103h-81v-103q0 -46 45.5 -71.5t105.5 -25.5q65 0 107 31t42 81q0 61 -110 131q51 9 80.5 36.5t29.5 70.5q0 38 -30 69.5t-82 64.5q-5 3 -19 12t-21 14q-22 13 -35 24q-31 26 -31 44q0 44 70 44q68 0 68 -31v-102h80zM191 293q-45 0 -63 25.5t0.5 51
t63.5 25.5q46 0 66 -25.5t1 -51t-68 -25.5z" />
    <glyph glyph-name="dieresis" unicode="&#xa8;" horiz-adv-x="267" 
d="M166 617q23 0 36 15t13 32q0 15 -13.5 29.5t-35.5 14.5q-18 0 -31 -10t-17 -23q-11 34 -46 34q-23 0 -36.5 -14t-13.5 -30q0 -17 13 -32t37 -15q34 0 45 35q11 -36 49 -36z" />
    <glyph glyph-name="copyright" unicode="&#xa9;" horiz-adv-x="443" 
d="M40 551v-417q0 -71 54 -108.5t129 -37.5q74 0 127 38t53 108v417q0 70 -53 108t-127 38q-75 0 -129 -38t-54 -108zM346 553v-420q0 -33 -34 -63q-30 -26 -89 -26q-64 0 -92 26q-33 31 -33 63v420q0 14 10 33t23 30q28 24 92 24q60 0 89 -24q13 -11 23.5 -29.5t10.5 -33.5
zM116 488v-295q0 -47 30.5 -77.5t79.5 -30.5q48 0 77 31t29 77v96h-54v-96q0 -26 -13.5 -42t-38.5 -16q-26 0 -40.5 16.5t-14.5 41.5v295q0 26 14.5 42t40.5 16h7q4 0 6 -1q12 -3 23 -14.5t14 -22.5q3 -9 3 -22v-25q0 -10 -0.5 -31.5t-0.5 -32.5v-6h54v97q0 47 -28.5 77.5
t-77.5 30.5q-50 0 -80 -30t-30 -78z" />
    <glyph glyph-name="ordfeminine" unicode="&#xaa;" horiz-adv-x="302" 
d="M40 395q0 -43 27.5 -77.5t83.5 -34.5q57 0 84 34t27 78v188q0 44 -27 79t-84 35q-56 0 -83.5 -35.5t-27.5 -78.5v-188zM118 506v5q0 4 -1 18t-1 28t2 26q3 23 11 33q8 11 22 11q19 0 27 -13q8 -11 8 -31v-77h-68zM186 439v-44q0 -43 -35 -43q-16 0 -24 13q-8 12 -8 30v44
h67z" />
    <glyph glyph-name="guillemotleft" unicode="&#xab;" horiz-adv-x="499" 
d="M40 369l176 -157h107l-171 157l172 154h-108zM179 369l173 -157h107l-172 157l172 154h-107z" />
    <glyph glyph-name="registered" unicode="&#xae;" horiz-adv-x="443" 
d="M40 551v-417q0 -71 54 -108.5t129 -37.5q74 0 127 38t53 108v417q0 70 -53 108t-127 38q-75 0 -129 -38t-54 -108zM346 553v-420q0 -33 -34 -63q-30 -26 -89 -26q-64 0 -92 26q-33 31 -33 63v420q0 14 10 33t23 30q28 24 92 24q60 0 89 -24q13 -11 23.5 -29.5t10.5 -33.5
zM168 115v222h65q23 0 36.5 -10t13.5 -26v-186h46v186q0 36 -30 60q24 19 24 50v88q0 37 -30 60t-76 23h-96v-467h47zM168 537h49q26 0 43.5 -11t17.5 -27v-89q0 -11 -14 -19t-32 -8h-64v154z" />
    <glyph glyph-name="macron" unicode="&#xaf;" horiz-adv-x="321" 
d="M25 676v-71h241v71h-241z" />
    <glyph glyph-name="degree" unicode="&#xb0;" horiz-adv-x="200" 
d="M40 625v-65q0 -21 15.5 -40t45.5 -19t44.5 19t14.5 40v65q0 20 -15 39t-44 19q-30 0 -45.5 -18t-15.5 -40z" />
    <glyph glyph-name="uni00B2" unicode="&#xb2;" horiz-adv-x="409" 
d="M103 417h115v-46h-178v37q0 20 30 69q9 15 26 39t20 29q13 21 21 35.5t13 31t-1 27t-24 13.5q-27 -4 -27 -35v-54h-58v67q0 26 19.5 47t57.5 21h16q42 0 60.5 -24t18.5 -53v-5v-7z" />
    <glyph glyph-name="uni00B3" unicode="&#xb3;" horiz-adv-x="391" 
d="M132 696q36 0 53 -19.5t17 -45.5v-50q0 -26 -15 -41q15 -15 15 -44v-57q0 -27 -17 -47t-53 -20h-18q-36 0 -53 20.5t-17 46.5v69l51 2v-63q0 -30 28 -34q13 2 20.5 12t7.5 22v41q0 14 -9.5 24t-27.5 10h-45v39h45q17 0 27 8t10 21v32q0 30 -28 33q-28 -3 -28 -33v-52h-51
v61q0 26 17 45.5t53 19.5h18z" />
    <glyph glyph-name="acute" unicode="&#xb4;" horiz-adv-x="289" 
d="M217 752l-194 -103l49 -54l194 98z" />
    <glyph glyph-name="periodcentered" unicode="&#xb7;" horiz-adv-x="177" 
d="M90 236q22 0 34.5 15t12.5 30t-12.5 30.5t-34.5 15.5q-23 0 -36.5 -15t-13.5 -31t13.5 -30.5t36.5 -14.5z" />
    <glyph glyph-name="cedilla" unicode="&#xb8;" horiz-adv-x="313" 
d="M228 -1q57 -52 57 -104q0 -33 -22.5 -63.5t-67.5 -30.5t-69 26.5t-24 60.5v73h63q-9 11 -9 21q0 20 2 54v8h75zM207 -124q6 12 6 22q0 15 -27 42l-10 10q0 -7 -0.5 -20.5t-0.5 -19.5v-15l3 -15q4 -14 16 -14q8 0 13 10z" />
    <glyph glyph-name="uni00B9" unicode="&#xb9;" horiz-adv-x="262" 
d="M147 660h-9h-20h-10v-71h31q6 0 9 1v-217h74v321h-74v-8v-17q0 -1 -0.5 -4t-0.5 -5z" />
    <glyph glyph-name="ordmasculine" unicode="&#xba;" horiz-adv-x="302" 
d="M40 584v-188q0 -44 27 -78.5t84 -34.5q58 0 84.5 34t26.5 79v188q0 43 -27 78t-84 35q-55 0 -83 -35.5t-28 -77.5zM186 584v-189q0 -43 -35 -43q-16 0 -24 13q-8 12 -8 30v189q0 19 7 30q8 13 25 13q35 0 35 -43z" />
    <glyph glyph-name="guillemotright" unicode="&#xbb;" horiz-adv-x="470" 
d="M199 369l-159 -157h104l160 157l-160 154h-104zM325 369l-158 -157h103l160 157l-160 154h-103z" />
    <glyph glyph-name="onequarter" unicode="&#xbc;" horiz-adv-x="830" 
d="M136 550v-550h75v692h-75v-8q0 -48 -14 -61.5t-72 -13.5h-10v-69h10q57 0 86 10zM607 178v-178h80v178h103v68h-103v103h-80v-103h-73q100 226 100 407v39h-77v-8q0 -170 -79 -366q-2 -5 -13 -29t-15 -37v-2q-1 -3 -2.5 -6l-3 -6t-2.5 -4q-5 -10 -5 -21v-35h170zM348 688
l-126 -786h77l125 786h-76z" />
    <glyph glyph-name="onehalf" unicode="&#xbd;" horiz-adv-x="787" 
d="M437 55v-55h310v73h-232q5 16 16 39l27 48q18 36 54.5 99.5t48.5 85.5q77 141 77 185q0 27 -7.5 54.5t-23 54.5t-46.5 44t-73 17q-75 0 -113 -46.5t-38 -104.5v-120h77v120q0 34 18 56.5t56 22.5q37 0 55 -30t18 -67q0 -6 -5 -18q-4 -11 -9 -18q-38 -88 -66 -138
q-63 -104 -87 -150q-57 -106 -57 -152zM136 550v-550h75v692h-75v-8q0 -48 -14 -61.5t-72 -13.5h-10v-69h10q57 0 86 10zM348 688l-126 -786h77l125 786h-76z" />
    <glyph glyph-name="threequarters" unicode="&#xbe;" horiz-adv-x="965" 
d="M44 276v-138q0 -58 37 -104t112 -46q76 0 112.5 45.5t36.5 104.5v111q0 72 -45 110q45 40 45 103v89q0 58 -37 103.5t-112 45.5t-112 -45.5t-37 -103.5v-115h76v115q0 77 73 77q37 0 55 -22t18 -55v-89q0 -29 -19 -48t-54 -19h-97v-69h97q37 0 55 -21.5t18 -54.5v-112
q0 -33 -18 -56t-55 -23q-38 0 -55.5 22.5t-17.5 56.5v144zM742 178v-178h80v178h103v68h-103v103h-80v-103h-73q99 224 99 407v39h-77v-8q0 -120 -32 -232q-17 -61 -75 -199q-1 -3 -4 -9t-4 -9q-5 -12 -5 -22v-35h171zM482 688l-126 -786h77l126 786h-77z" />
    <glyph glyph-name="questiondown" unicode="&#xbf;" horiz-adv-x="384" 
d="M191 578q-24 0 -37 -15t-13 -32q0 -16 14 -30t36 -14t35.5 14t13.5 30q0 17 -13 32t-36 15zM264 21q0 -32 -18 -52t-54 -20q-38 0 -57 34q-15 29 -15 66q0 34 41 84q20 26 73 79l2 2v6q0 17 -4.5 47.5t-5.5 42.5q-2 36 -2 109v8h-76v-8q0 -123 7 -183
q-115 -110 -115 -187q0 -26 8 -54t24.5 -55t47.5 -44.5t72 -17.5q75 0 113.5 42.5t38.5 100.5v120h-80v-120z" />
    <glyph glyph-name="Agrave" unicode="&#xc0;" horiz-adv-x="422" 
d="M339 728l-189 101l-57 -57l160 -80h-69l-144 -692h78l24 122h155l24 -122h77l-143 691l37 -19zM157 191l63 307l61 -307h-124z" />
    <glyph glyph-name="Aacute" unicode="&#xc1;" horiz-adv-x="422" 
d="M286 843l-192 -101l46 -56l196 99zM118 0l24 122h155l24 -122h77l-143 692h-71l-144 -692h78zM157 191l63 307l61 -307h-124z" />
    <glyph glyph-name="Acircumflex" unicode="&#xc2;" horiz-adv-x="429" 
d="M40 688h111l68 53l64 -53h113l-157 134h-39zM125 0l24 122h155l24 -122h77l-143 692h-71l-144 -692h78zM164 191l63 307l61 -307h-124z" />
    <glyph glyph-name="Atilde" unicode="&#xc3;" horiz-adv-x="422" 
d="M255 689l143 -689h-77l-24 122h-155l-24 -122h-78l144 692h62q-24 9 -55 33q-1 1 -7.5 6t-9.5 8q-10 8 -15 11q-12 10 -21 10h-1q-1 -1 -1 -4v-3q2 0 5 -0.5t4 -0.5l8 -2v-68l-12 1q-75 10 -75 65v16q0 24 20 42.5t52 18.5q39 0 87 -39q2 -1 5 -4t5.5 -5t4.5 -3
q10 -8 15 -11q2 -2 4 -2v64h32q23 0 43 -20q17 -17 17 -48q0 -26 -18.5 -48.5t-53.5 -22.5q-12 0 -24 3zM280 756l-10 -1q3 -1 9 -1h1v2zM157 191h124l-61 307z" />
    <glyph glyph-name="Adieresis" unicode="&#xc4;" horiz-adv-x="422" 
d="M266 703q23 0 36 14.5t13 30.5q0 17 -13 31.5t-36 14.5q-38 0 -46 -36q-9 37 -48 37q-23 0 -36.5 -14.5t-13.5 -31.5q0 -16 13.5 -30.5t36.5 -14.5q38 0 48 35q3 -15 14.5 -25.5t31.5 -10.5zM118 0l24 122h155l24 -122h77l-143 692h-71l-144 -692h78zM157 191l63 307
l61 -307h-124z" />
    <glyph glyph-name="Aring" unicode="&#xc5;" horiz-adv-x="422" 
d="M222 698q-36 0 -55 23t-19 49q0 27 18.5 49.5t55.5 22.5t54.5 -23t17.5 -49q0 -27 -17.5 -49.5t-54.5 -22.5zM221 752q18 0 18 18t-18 18t-18 -18q0 -6 5 -12t13 -6zM40 0l144 692h71l143 -692h-77l-24 122h-155l-24 -122h-78zM157 191h124l-61 307z" />
    <glyph glyph-name="AE" unicode="&#xc6;" horiz-adv-x="526" 
d="M486 398h-204v224h203v70h-301l-144 -692h78l24 122h67v-122h277v70h-204v258h204v70zM209 444v-253h-52z" />
    <glyph glyph-name="Ccedilla" unicode="&#xc7;" horiz-adv-x="384" 
d="M152 -39h-53v-8q0 -38 1 -56q1 -19 4 -32.5t12 -29.5t28 -25t47 -9q46 0 69.5 30.5t23.5 65.5q0 43 -53 96q57 13 84.5 55t27.5 91v134h-74v-135q0 -32 -20.5 -56.5t-56.5 -24.5q-37 0 -57.5 24.5t-20.5 56.5v413q0 33 20 56t58 23q36 0 56.5 -23.5t20.5 -55.5v-136h74
v134q0 58 -37.5 104.5t-113.5 46.5t-114 -46.5t-38 -104.5v-410q0 -49 27 -90.5t85 -56.5v-31zM173 -49l2 -2l25 -27q11 -15 11 -25q0 -9 -6 -21q-4 -10 -11 -10q-15 0 -19 13l-3 15v16q0 6 0.5 20t0.5 21z" />
    <glyph glyph-name="Egrave" unicode="&#xc8;" horiz-adv-x="362" 
d="M304 758l-188 103l-59 -59l201 -98zM40 692v-692h276v70h-201v258h201v70h-201v224h200v70h-275z" />
    <glyph glyph-name="Eacute" unicode="&#xc9;" horiz-adv-x="362" 
d="M115 622h200v70h-180l170 86l-51 57l-191 -100l36 -43h-59v-692h276v70h-201v258h201v70h-201v224z" />
    <glyph glyph-name="Ecircumflex" unicode="&#xca;" horiz-adv-x="442" 
d="M200 834l-160 -133h112l67 53l64 -53h113l-157 133h-39zM151 622h201v70h-275v-692h276v70h-202v258h202v70h-202v224z" />
    <glyph glyph-name="Edieresis" unicode="&#xcb;" horiz-adv-x="362" 
d="M227 703q22 0 34.5 15t12.5 30t-12.5 30.5t-34.5 15.5q-37 0 -48 -36q-3 15 -16 26t-33 11q-22 0 -34 -15.5t-12 -30.5t12 -30t34 -15q39 0 49 35q3 -14 16 -25t32 -11zM115 622h200v70h-275v-692h276v70h-201v258h201v70h-201v224z" />
    <glyph glyph-name="Igrave" unicode="&#xcc;" horiz-adv-x="190" 
d="M193 668l46 55l-188 102l-59 -58zM58 0h74v692h-74v-692z" />
    <glyph glyph-name="Iacute" unicode="&#xcd;" horiz-adv-x="186" 
d="M52 0v690l-29 -15l-49 56l194 100l49 -56l-162 -83h73v-692h-76z" />
    <glyph glyph-name="Icircumflex" unicode="&#xce;" horiz-adv-x="249" 
d="M106 820l-160 -134h112l67 53l64 -53h113l-157 134h-39zM85 0h75v692h-75v-692z" />
    <glyph glyph-name="Idieresis" unicode="&#xcf;" horiz-adv-x="156" 
d="M123 701q22 0 35.5 14.5t13.5 30.5q0 17 -13 31.5t-36 14.5q-38 0 -48 -34q-11 35 -46 35q-23 0 -36.5 -14.5t-13.5 -31.5q0 -16 13.5 -30.5t36.5 -14.5q34 0 45 33q11 -34 49 -34zM38 0h74v692h-74v-692z" />
    <glyph glyph-name="Eth" unicode="&#xd0;" horiz-adv-x="391" 
d="M351 127v439q0 57 -46 91.5t-120 34.5h-149v-282h-95v-70h95v-340h149q73 0 119.5 35.5t46.5 91.5zM277 566v-439q0 -26 -27 -41.5t-65 -15.5h-74v270h97v70h-97v212h74q39 0 65.5 -14.5t26.5 -41.5z" />
    <glyph glyph-name="Ntilde" unicode="&#xd1;" horiz-adv-x="398" 
d="M251 766h-1l-2 1q-4 4 -14 10q-4 4 -16 14q-44 38 -88 38q-32 0 -52 -17.5t-20 -41.5v-16q0 -46 49 -61q3 0 9 -2q2 -1 6 -1q2 -1 6 -1h18v69h-10h-7v3q0 2 1 3v2q7 0 21 -10q5 -4 16 -12.5t16 -12.5q49 -40 88 -40q7 0 10 1v-459l-172 459h-67l1 -692h74v453l171 -453
h68v692h-73q29 4 44.5 25.5t15.5 44.5q0 32 -17 48q-19 19 -43 19h-32v-63zM271 762l1 -1l-1 -3q-5 0 -12 3z" />
    <glyph glyph-name="Ograve" unicode="&#xd2;" 
d="M317 743l-188 103l-59 -59l201 -98zM40 549v-410q0 -58 38 -104.5t114 -46.5q75 0 113 46.5t38 104.5v410q0 58 -37.5 104.5t-113.5 46.5t-114 -46.5t-38 -104.5zM269 551v-413q0 -31 -21 -56t-56 -25q-37 0 -57.5 24.5t-20.5 56.5v413q0 33 20 56t58 23q36 0 56.5 -23.5
t20.5 -55.5z" />
    <glyph glyph-name="Oacute" unicode="&#xd3;" 
d="M268 849l-194 -103l49 -54l194 98zM40 549v-410q0 -58 38 -104.5t114 -46.5q75 0 113 46.5t38 104.5v410q0 58 -37.5 104.5t-113.5 46.5t-114 -46.5t-38 -104.5zM269 551v-413q0 -31 -21 -56t-56 -25q-37 0 -57.5 24.5t-20.5 56.5v413q0 33 20 56t58 23q36 0 56.5 -23.5
t20.5 -55.5z" />
    <glyph glyph-name="Ocircumflex" unicode="&#xd4;" horiz-adv-x="436" 
d="M40 698h112l67 53l64 -53h113l-157 133h-39zM68 549v-410q0 -58 38 -104.5t113 -46.5q76 0 114 46.5t38 104.5v410q0 58 -38 104.5t-114 46.5t-113.5 -46t-37.5 -105zM297 551v-413q0 -31 -21 -56t-57 -25t-57 24.5t-21 56.5v413q0 33 20.5 56t57.5 23t57.5 -23.5
t20.5 -55.5z" />
    <glyph glyph-name="Otilde" unicode="&#xd5;" 
d="M129 765q-1 2 -1 5l1 4q7 0 21 -10q3 -2 8.5 -6t7.5 -5q2 -2 5 -4.5t6.5 -5t5.5 -4.5q48 -39 87 -39q35 0 53.5 22.5t18.5 48.5q0 31 -17 47q-23 20 -43 20h-32v-64q-1 1 -2 1l-14 11q-12 10 -17 13q-43 39 -88 39q-32 0 -52 -18t-20 -42v-16q0 -55 76 -65l12 -1v69h-10
h-6zM260 769l11 1l-1 -4q-4 0 -10 3zM40 549v-410q0 -58 38 -104.5t114 -46.5q75 0 113 46.5t38 104.5v410q0 58 -37.5 104.5t-113.5 46.5t-114 -46.5t-38 -104.5zM269 551v-413q0 -31 -21 -56t-56 -25q-37 0 -57.5 24.5t-20.5 56.5v413q0 33 20 56t58 23q36 0 56.5 -23.5
t20.5 -55.5z" />
    <glyph glyph-name="Odieresis" unicode="&#xd6;" 
d="M237 701q23 0 36.5 14.5t13.5 30.5q0 17 -13.5 31.5t-36.5 14.5q-36 0 -45 -36q-3 15 -16 26t-33 11q-24 0 -35.5 -15t-11.5 -31t12 -30.5t35 -14.5q38 0 49 35q9 -36 45 -36zM40 549v-410q0 -58 38 -104.5t114 -46.5q75 0 113 46.5t38 104.5v410q0 58 -37.5 104.5
t-113.5 46.5t-114 -46.5t-38 -104.5zM269 551v-413q0 -31 -21 -56t-56 -25q-37 0 -57.5 24.5t-20.5 56.5v413q0 33 20 56t58 23q36 0 56.5 -23.5t20.5 -55.5z" />
    <glyph glyph-name="multiply" unicode="&#xd7;" horiz-adv-x="478" 
d="M40 143l54 -53l149 147l142 -138l53 53l-142 136l139 134l-54 53l-138 -134l-146 141l-53 -51l148 -143z" />
    <glyph glyph-name="Oslash" unicode="&#xd8;" 
d="M283 671l8 62h-74l-7 -34q-3 0 -8.5 0.5t-9.5 0.5q-76 0 -114 -46.5t-38 -104.5v-410q0 -74 58 -119l1 -1q1 -1 1 -2l-7 -70h73l8 42q3 0 9 -0.5t9 -0.5q76 0 113.5 46.5t37.5 104.5v410q0 82 -60 122zM201 630l-85 -509q-2 12 -2 17v413q0 34 19.5 56.5t58.5 22.5h9z
M269 551v-413q0 -32 -20.5 -56.5t-56.5 -24.5h-8l82 516q3 -12 3 -22z" />
    <glyph glyph-name="Ugrave" unicode="&#xd9;" 
d="M269 677v-539q0 -31 -21 -56t-56 -25q-37 0 -57.5 24.5t-20.5 56.5v554h-74v-553q0 -58 38 -104.5t114 -46.5q75 0 113 46.5t38 104.5v553h-59l34 40l-189 100l-56 -57z" />
    <glyph glyph-name="Uacute" unicode="&#xda;" 
d="M192 -12q-76 0 -114 46.5t-38 104.5v553h72l-38 48l191 100l50 -57l-196 -99l-5 6v-552q0 -32 20.5 -56.5t57.5 -24.5q35 0 56 25t21 56v554h74v-553q0 -58 -38 -104.5t-113 -46.5z" />
    <glyph glyph-name="Ucircumflex" unicode="&#xdb;" horiz-adv-x="436" 
d="M200 834l-160 -133h112l67 53l64 -53h113l-157 133h-39zM370 139v553h-74v-554q0 -31 -21 -56t-57 -25t-57 24.5t-21 56.5v554h-73v-553q0 -58 38 -104.5t113 -46.5q76 0 114 46.5t38 104.5z" />
    <glyph glyph-name="Udieresis" unicode="&#xdc;" 
d="M237 701q23 0 36.5 14.5t13.5 30.5q0 17 -13.5 31.5t-36.5 14.5q-36 0 -45 -36q-3 15 -16 26t-33 11q-24 0 -35.5 -15t-11.5 -31t12 -30.5t35 -14.5q38 0 49 35q9 -36 45 -36zM343 139v553h-74v-554q0 -31 -21 -56t-56 -25q-37 0 -57.5 24.5t-20.5 56.5v554h-74v-553
q0 -58 38 -104.5t114 -46.5q75 0 113 46.5t38 104.5z" />
    <glyph glyph-name="Yacute" unicode="&#xdd;" horiz-adv-x="449" 
d="M351 793l-50 58l-195 -102l49 -55zM200 0h72v233q0 12 -2 32t-2 24q-2 29 3 54l138 349h-79l-96 -250l-112 250h-82l107 -239q13 -24 30 -55q16 -31 22 -56q4 -22 4 -54q-4 -36 -4 -57z" />
    <glyph glyph-name="germandbls" unicode="&#xdf;" horiz-adv-x="386" 
d="M40 578v-578h80v578q0 35 17.5 57.5t55.5 22.5t55.5 -22.5t17.5 -57.5v-85q0 -31 -18.5 -50.5t-54.5 -19.5q-12 0 -24 2q-4 1 -12 3.5t-12 3.5l-14 5v-96l14 4l18 6q7 3 14 3h16q73 0 73 -74v-113q0 -43 -20.5 -61.5t-73.5 -18.5h-10v-68h10q89 0 131.5 39.5t42.5 108.5
v112q0 67 -47 110q47 35 47 104v85q0 59 -38 104t-115 45t-115 -44.5t-38 -104.5z" />
    <glyph glyph-name="agrave" unicode="&#xe0;" 
d="M318 642l-191 103l-52 -59l196 -98zM40 295v-155q0 -59 37.5 -106t114.5 -47q75 0 113 47.5t38 105.5v293q0 58 -38 105.5t-113 47.5t-113.5 -47.5t-38.5 -105.5v-106h75v106q0 33 20 58.5t57 25.5q36 0 56 -25.5t20 -58.5v-138h-228zM268 225v-85q0 -34 -19.5 -59
t-56.5 -25q-38 0 -57.5 25t-19.5 59v85h153z" />
    <glyph glyph-name="aacute" unicode="&#xe1;" 
d="M265 752l-191 -103l45 -54l196 98zM40 295v-155q0 -59 37.5 -106t114.5 -47q75 0 113 47.5t38 105.5v293q0 58 -38 105.5t-113 47.5t-113.5 -47.5t-38.5 -105.5v-106h75v106q0 33 20 58.5t57 25.5q36 0 56 -25.5t20 -58.5v-138h-228zM268 225v-85q0 -34 -19.5 -59
t-56.5 -25q-38 0 -57.5 25t-19.5 59v85h153z" />
    <glyph glyph-name="acircumflex" unicode="&#xe2;" horiz-adv-x="436" 
d="M40 596h112l67 53l64 -53h113l-157 133h-39zM67 295v-155q0 -59 37 -106t114 -47q75 0 113.5 47.5t38.5 105.5v293q0 58 -38.5 105.5t-113.5 47.5q-76 0 -113.5 -47t-37.5 -106v-106h74v106q0 33 20.5 58.5t56.5 25.5t56.5 -25.5t20.5 -58.5v-138h-228zM295 225v-85
q0 -34 -19.5 -59t-57.5 -25t-57.5 25t-19.5 59v85h154z" />
    <glyph glyph-name="atilde" unicode="&#xe3;" 
d="M125 659q0 4 1 6q7 -1 19 -8l15 -10q10 -8 15 -13q45 -34 82 -34q36 0 54 22.5t18 48.5q0 40 -38 61l-4 3q-4 2 -8 3q-2 1 -7 1h-39l5 -63q-5 3 -14.5 11t-14.5 11q-45 35 -87 35q-15 0 -39 -13q-12 -7 -28 -23l-2 -2v-33q0 -36 31 -56l5 -3q2 -1 5 -4q13 -5 18 -5h31v55
l-3 3l-6 3q-1 1 -2.5 2t-2.5 1q-3 0 -4 1zM242 673l4 -1q1 0 4 -0.5t5 -0.5q0 -1 2 -1v-1q0 -1 -0.5 -1t-0.5 -1l-2 1h-3zM40 295v-155q0 -59 37.5 -106t114.5 -47q75 0 113 47.5t38 105.5v293q0 58 -38 105.5t-113 47.5t-113.5 -47.5t-38.5 -105.5v-106h75v106
q0 33 20 58.5t57 25.5q36 0 56 -25.5t20 -58.5v-138h-228zM268 225v-85q0 -34 -19.5 -59t-56.5 -25q-38 0 -57.5 25t-19.5 59v85h153z" />
    <glyph glyph-name="adieresis" unicode="&#xe4;" 
d="M144 618q39 0 49 37q9 -38 45 -38q24 0 37 15t13 32q0 16 -13.5 30t-36.5 14q-36 0 -45 -35q-3 14 -16 25t-33 11q-24 0 -35.5 -14t-11.5 -30q0 -17 11.5 -32t35.5 -15zM40 295v-155q0 -59 37.5 -106t114.5 -47q75 0 113 47.5t38 105.5v293q0 58 -38 105.5t-113 47.5
t-113.5 -47.5t-38.5 -105.5v-106h75v106q0 33 20 58.5t57 25.5q36 0 56 -25.5t20 -58.5v-138h-228zM268 225v-85q0 -34 -19.5 -59t-56.5 -25q-38 0 -57.5 25t-19.5 59v85h153z" />
    <glyph glyph-name="aring" unicode="&#xe5;" 
d="M201 609q-36 0 -55 23t-19 49q0 27 18.5 49.5t55.5 22.5t54.5 -23t17.5 -49q0 -27 -17.5 -49.5t-54.5 -22.5zM200 663q18 0 18 18t-18 18t-18 -18q0 -6 5 -12t13 -6zM40 295v-155q0 -59 37.5 -106t114.5 -47q75 0 113 47.5t38 105.5v293q0 58 -38 105.5t-113 47.5
t-113.5 -47.5t-38.5 -105.5v-106h75v106q0 33 20 58.5t57 25.5q36 0 56 -25.5t20 -58.5v-138h-228zM268 225v-85q0 -34 -19.5 -59t-56.5 -25q-38 0 -57.5 25t-19.5 59v85h153z" />
    <glyph glyph-name="ae" unicode="&#xe6;" horiz-adv-x="609" 
d="M40 327h80v106q0 33 18 58t54 25q37 0 54 -24.5t17 -58.5v-138h-223v-155q0 -58 38 -106t114 -48q69 0 114 48q44 -46 112 -46q76 0 113.5 48t37.5 107v105h-78v-105q0 -22 -11 -47t-29 -32q-17 -5 -33 -5q-37 0 -54.5 25t-17.5 59v137h223v156q0 59 -37.5 105t-113.5 46
q-74 0 -114 -46q-45 45 -112 45q-75 0 -113.5 -47.5t-38.5 -105.5v-106zM346 350v86q0 34 17.5 58t54.5 24t54 -23.5t17 -58.5v-86h-143zM263 225v-85q0 -34 -17 -58.5t-54 -24.5t-54.5 24.5t-17.5 58.5v85h143z" />
    <glyph glyph-name="ccedilla" unicode="&#xe7;" 
d="M151 -39h-52v-76q0 -32 24 -58t67 -26q37 0 60 20q33 30 33 76q0 43 -51 94q57 14 84 56.5t27 92.5v106h-75v-106q0 -33 -20 -58.5t-56 -25.5q-37 0 -57 25.5t-20 58.5v293q0 34 19.5 59t57.5 25q37 0 56.5 -25t19.5 -59v-106h75v106q0 59 -37 106t-114 47
q-75 0 -113.5 -47.5t-38.5 -105.5v-293q0 -49 27.5 -92.5t83.5 -57.5v-29zM172 -49l2 -2l25 -27q11 -15 11 -25q0 -9 -6 -21q-4 -10 -11 -10q-14 0 -18 14q-4 9 -4 30q0 6 0.5 20t0.5 21z" />
    <glyph glyph-name="egrave" unicode="&#xe8;" 
d="M318 642l-191 103l-52 -59l196 -98zM343 280v156q0 59 -37.5 105t-113.5 46t-114 -46t-38 -105v-293q0 -59 38.5 -107t113.5 -48q76 0 113.5 48t37.5 107v105h-75v-8q0 -5 0.5 -22.5t0.5 -29.5q2 -32 -4 -61q-13 -69 -73 -69q-37 0 -57 25.5t-20 59.5v137h228zM115 350
v86q0 35 19 59t58 24q37 0 56.5 -25t19.5 -58v-86h-153z" />
    <glyph glyph-name="eacute" unicode="&#xe9;" 
d="M265 752l-191 -103l45 -54l196 98zM343 280v156q0 59 -37.5 105t-113.5 46t-114 -46t-38 -105v-293q0 -59 38.5 -107t113.5 -48q76 0 113.5 48t37.5 107v105h-75v-8q0 -5 0.5 -22.5t0.5 -29.5q2 -32 -4 -61q-13 -69 -73 -69q-37 0 -57 25.5t-20 59.5v137h228zM115 350v86
q0 35 19 59t58 24q37 0 56.5 -25t19.5 -58v-86h-153z" />
    <glyph glyph-name="ecircumflex" unicode="&#xea;" horiz-adv-x="436" 
d="M40 596h112l67 53l64 -53h113l-157 133h-39zM370 280v156q0 59 -38 105t-114 46t-113.5 -46t-37.5 -105v-293q0 -59 37.5 -107t113.5 -48t114 48t38 107v105h-75v-8q0 -9 0.5 -32t0.5 -36q0 -45 -8 -64q-20 -50 -70 -50q-36 0 -56.5 26t-20.5 59v137h229zM141 350v86
q0 34 19.5 58.5t57.5 24.5t57.5 -24.5t19.5 -58.5v-86h-154z" />
    <glyph glyph-name="edieresis" unicode="&#xeb;" 
d="M238 617q24 0 37 15t13 32q0 16 -13.5 30t-36.5 14q-36 0 -45 -35q-3 14 -16 25t-33 11q-24 0 -35.5 -14t-11.5 -30q0 -17 11.5 -32t35.5 -15q39 0 49 37q9 -38 45 -38zM343 280v156q0 59 -37.5 105t-113.5 46t-114 -46t-38 -105v-293q0 -59 38.5 -107t113.5 -48
q76 0 113.5 48t37.5 107v105h-75v-8q0 -5 0.5 -22.5t0.5 -29.5q2 -32 -4 -61q-13 -69 -73 -69q-37 0 -57 25.5t-20 59.5v137h228zM115 350v86q0 35 19 59t58 24q37 0 56.5 -25t19.5 -58v-86h-153z" />
    <glyph glyph-name="igrave" unicode="&#xec;" horiz-adv-x="202" 
d="M184 588l46 54l-188 103l-59 -59zM64 0h76v587h-76v-587z" />
    <glyph glyph-name="iacute" unicode="&#xed;" horiz-adv-x="198" 
d="M223 693l-49 59l-194 -103l49 -54zM60 0h76v587h-76v-587z" />
    <glyph glyph-name="icircumflex" unicode="&#xee;" horiz-adv-x="261" 
d="M112 729l-160 -133h112l67 53l64 -53h113l-157 133h-39zM93 0h75v587h-75v-587z" />
    <glyph glyph-name="idieresis" unicode="&#xef;" horiz-adv-x="168" 
d="M132 617q23 0 36 15t13 32q0 15 -13.5 29.5t-35.5 14.5q-18 0 -31 -10t-17 -23q-11 34 -46 34q-23 0 -36.5 -14t-13.5 -30q0 -17 13 -32t37 -15q34 0 45 35q11 -36 49 -36zM47 0h73v587h-73v-587z" />
    <glyph glyph-name="eth" unicode="&#xf0;" horiz-adv-x="473" 
d="M433 503h-89v46q0 58 -37.5 104.5t-113.5 46.5t-114.5 -46.5t-38.5 -104.5v-61h80v8v42q0 23 6 44q13 46 67 46q35 0 53 -23.5t18 -55.5v-46h-97v-70h97v-25q-33 15 -71 15q-76 0 -114.5 -45t-38.5 -104v-134q0 -58 38.5 -105t114.5 -47q77 0 114 46.5t37 105.5v293h89
v70zM264 274v-134q0 -33 -18 -57t-53 -24q-73 0 -73 81v134q0 80 74 80q35 0 52.5 -24t17.5 -56z" />
    <glyph glyph-name="ntilde" unicode="&#xf1;" 
d="M242 684q-1 0 -3 2q-5 3 -15 11q-12 10 -17 13q-48 39 -86 39q-32 0 -52 -19t-20 -43v-15q0 -56 77 -65l11 -1v66l-7 2q-5 0 -8 1h-1v1v6l1 1q7 0 20 -10q10 -6 15 -10l17 -14q50 -39 88 -39q35 0 53.5 22.5t18.5 47.5q0 29 -17 45q-5 7 -18 15.5t-25 8.5h-32v-65z
M263 679l-1 -3q-3 0 -9 2zM268 434v-434h75v434q0 59 -37 105.5t-114 46.5q-76 0 -114 -46.5t-38 -105.5v-434h75v434q0 35 19 59t58 24q37 0 56.5 -25t19.5 -58z" />
    <glyph glyph-name="ograve" unicode="&#xf2;" 
d="M271 588l47 54l-191 103l-52 -59zM343 140v293q0 58 -38 105.5t-113 47.5t-113.5 -47.5t-38.5 -105.5v-293q0 -58 38 -106t114 -48t113.5 47.5t37.5 106.5zM115 140v293q0 34 19.5 59t57.5 25q36 0 56 -25.5t20 -58.5v-293q0 -33 -20 -58.5t-56 -25.5q-38 0 -57.5 25
t-19.5 59z" />
    <glyph glyph-name="oacute" unicode="&#xf3;" 
d="M315 693l-50 59l-191 -103l45 -54zM343 140v293q0 58 -38 105.5t-113 47.5t-113.5 -47.5t-38.5 -105.5v-293q0 -58 38 -106t114 -48t113.5 47.5t37.5 106.5zM115 140v293q0 34 19.5 59t57.5 25q36 0 56 -25.5t20 -58.5v-293q0 -33 -20 -58.5t-56 -25.5q-38 0 -57.5 25
t-19.5 59z" />
    <glyph glyph-name="ocircumflex" unicode="&#xf4;" horiz-adv-x="436" 
d="M40 596h112l67 53l64 -53h113l-157 133h-39zM370 140v293q0 58 -38.5 105.5t-113.5 47.5q-76 0 -113.5 -47t-37.5 -106v-293q0 -59 37.5 -106.5t113.5 -47.5q77 0 114.5 47.5t37.5 106.5zM295 433v-293q0 -33 -20 -58.5t-57 -25.5q-38 0 -57.5 25t-19.5 59v293
q0 34 19.5 59t57.5 25q37 0 57 -25.5t20 -58.5z" />
    <glyph glyph-name="otilde" unicode="&#xf5;" 
d="M241 684h-1l-2 1l-15 12q-13 10 -17 13q-48 39 -85 39q-32 0 -52.5 -18.5t-20.5 -43.5v-15q0 -56 77 -65l11 -1v66l-7 2q-5 0 -8 1h-1v4l1 4q7 0 20 -10q3 -1 33 -24q50 -39 87 -39q35 0 53.5 22.5t18.5 47.5q0 29 -17 45q-5 7 -18 15.5t-25 8.5h-32v-65zM262 679l-1 -3
q-3 0 -9 2zM343 140v293q0 58 -38 105.5t-113 47.5t-113.5 -47.5t-38.5 -105.5v-293q0 -58 38 -106t114 -48t113.5 47.5t37.5 106.5zM268 433v-293q0 -33 -20 -58.5t-56 -25.5q-38 0 -57.5 25t-19.5 59v293q0 34 19.5 59t57.5 25q36 0 56 -25.5t20 -58.5z" />
    <glyph glyph-name="odieresis" unicode="&#xf6;" 
d="M238 617q24 0 37 15t13 32q0 16 -13.5 30t-36.5 14q-36 0 -45 -35q-3 14 -16 25t-33 11q-24 0 -35.5 -14t-11.5 -30q0 -17 11.5 -32t35.5 -15q39 0 49 37q9 -38 45 -38zM343 140v293q0 58 -38 105.5t-113 47.5t-113.5 -47.5t-38.5 -105.5v-293q0 -58 38 -106t114 -48
t113.5 47.5t37.5 106.5zM268 433v-293q0 -33 -20 -58.5t-56 -25.5q-38 0 -57.5 25t-19.5 59v293q0 34 19.5 59t57.5 25q36 0 56 -25.5t20 -58.5z" />
    <glyph glyph-name="divide" unicode="&#xf7;" horiz-adv-x="565" 
d="M276 364q22 0 35.5 14.5t13.5 29.5q0 17 -12.5 32t-36.5 15t-37 -15t-13 -32q0 -15 14 -29.5t36 -14.5zM40 324v-70h485v70h-485zM276 136q23 0 36 14.5t13 30.5t-12.5 31t-36.5 15t-37 -15t-13 -31t13.5 -30.5t36.5 -14.5z" />
    <glyph glyph-name="oslash" unicode="&#xf8;" 
d="M104 9l-12 -107h73l15 85q4 -1 12 -1q76 0 113.5 47.5t37.5 106.5v293q0 39 -17 76t-54 58l19 121h-75l-16 -102h-8q-75 0 -113.5 -47.5t-38.5 -105.5v-293q0 -37 15.5 -73.5t48.5 -57.5zM188 517l-67 -410q-6 17 -6 33v293q0 33 18.5 58t54.5 26zM268 433v-293
q0 -33 -20 -58.5t-56 -25.5h-2l67 422q11 -19 11 -45z" />
    <glyph glyph-name="ugrave" unicode="&#xf9;" 
d="M271 588l47 54l-191 103l-52 -59zM343 587h-75v-445q0 -33 -20 -58.5t-56 -25.5q-38 0 -57.5 25t-19.5 59v445h-75v-445q0 -59 38 -106.5t114 -47.5q40 0 70.5 14.5t47.5 38t25 49t8 52.5v445z" />
    <glyph glyph-name="uacute" unicode="&#xfa;" 
d="M315 693l-50 59l-191 -103l45 -54zM343 587h-75v-445q0 -33 -20 -58.5t-56 -25.5q-38 0 -57.5 25t-19.5 59v445h-75v-445q0 -59 38 -106.5t114 -47.5q40 0 70.5 14.5t47.5 38t25 49t8 52.5v445z" />
    <glyph glyph-name="ucircumflex" unicode="&#xfb;" horiz-adv-x="436" 
d="M200 729l-160 -133h112l67 53l64 -53h113l-157 133h-39zM370 587h-75v-445q0 -33 -20 -58.5t-57 -25.5q-38 0 -57.5 25t-19.5 59v445h-74v-445q0 -59 37.5 -106.5t113.5 -47.5q77 0 114.5 47.5t37.5 106.5v445z" />
    <glyph glyph-name="udieresis" unicode="&#xfc;" 
d="M238 617q24 0 37 15t13 32q0 16 -13.5 30t-36.5 14q-36 0 -45 -35q-3 14 -16 25t-33 11q-24 0 -35.5 -14t-11.5 -30q0 -17 11.5 -32t35.5 -15q39 0 49 37q9 -38 45 -38zM343 587h-75v-445q0 -33 -20 -58.5t-56 -25.5q-38 0 -57.5 25t-19.5 59v445h-75v-445
q0 -59 38 -106.5t114 -47.5q40 0 70.5 14.5t47.5 38t25 49t8 52.5v445z" />
    <glyph glyph-name="yacute" unicode="&#xfd;" horiz-adv-x="380" 
d="M314 693l-50 59l-191 -103l45 -54zM269 587h75v-576q0 -58 -38 -105.5t-113 -47.5q-73 0 -109 41.5t-42 99.5h75q10 -74 76 -74q36 0 55.5 25t20.5 58q-37 -20 -76 -20q-67 0 -109.5 44.5t-42.5 110.5v444h75v-444q0 -34 20 -59.5t57 -25.5q36 0 56 26t20 59v444z" />
    <glyph glyph-name="ydieresis" unicode="&#xff;" horiz-adv-x="380" 
d="M238 617q24 0 36.5 15t12.5 32q0 16 -13 30t-36 14q-35 0 -46 -35q-3 14 -16 25t-33 11q-24 0 -35.5 -14t-11.5 -30q0 -17 11.5 -32t35.5 -15q39 0 49 37q9 -38 46 -38zM270 587h75v-576q0 -58 -38 -105.5t-113 -47.5q-73 0 -109 41.5t-42 99.5h75q10 -74 76 -74
q36 0 55.5 25t20.5 58q-37 -20 -76 -20q-67 0 -109.5 44.5t-42.5 110.5v444h75v-444q0 -34 20 -59.5t57 -25.5q36 0 56 26t20 59v444z" />
    <glyph glyph-name="Amacron" unicode="&#x100;" horiz-adv-x="422" 
d="M92 700h240v71h-240v-71zM118 0l24 122h155l24 -122h77l-143 692h-71l-144 -692h78zM157 191l63 307l61 -307h-124z" />
    <glyph glyph-name="amacron" unicode="&#x101;" 
d="M75 605h240v71h-240v-71zM40 295v-155q0 -59 37.5 -106t114.5 -47q75 0 113 47.5t38 105.5v293q0 58 -38 105.5t-113 47.5t-113.5 -47.5t-38.5 -105.5v-106h75v106q0 33 20 58.5t57 25.5q36 0 56 -25.5t20 -58.5v-138h-228zM268 225v-85q0 -34 -19.5 -59t-56.5 -25
q-38 0 -57.5 25t-19.5 59v85h153z" />
    <glyph glyph-name="Abreve" unicode="&#x102;" horiz-adv-x="422" 
d="M265 820v-12q0 -40 -50 -40q-29 0 -39 12.5t-10 36.5v3h-76v-8q0 -59 25 -87.5t100 -28.5q128 0 128 91v33h-78zM184 692l-144 -692h78l24 122h155l24 -122h77l-143 692h-71zM157 191l63 307l61 -307h-124z" />
    <glyph glyph-name="abreve" unicode="&#x103;" 
d="M248 718v-12q0 -40 -50 -40q-29 0 -39 12.5t-10 36.5v3h-76v-8q0 -59 25 -87.5t100 -28.5q128 0 128 91v33h-78zM40 295v-155q0 -59 37.5 -106t114.5 -47q75 0 113 47.5t38 105.5v293q0 58 -38 105.5t-113 47.5t-113.5 -47.5t-38.5 -105.5v-106h75v106q0 33 20 58.5
t57 25.5q36 0 56 -25.5t20 -58.5v-138h-228zM268 225v-85q0 -34 -19.5 -59t-56.5 -25q-38 0 -57.5 25t-19.5 59v85h153z" />
    <glyph glyph-name="Cacute" unicode="&#x106;" horiz-adv-x="384" 
d="M315 788l-50 58l-191 -101l45 -56zM40 549v-410q0 -58 38 -104.5t114 -46.5q75 0 113 46.5t38 104.5v134h-74v-135q0 -32 -20.5 -56.5t-56.5 -24.5q-37 0 -57.5 24.5t-20.5 56.5v413q0 33 20 56t58 23q36 0 56.5 -23.5t20.5 -55.5v-136h74v134q0 58 -37.5 104.5
t-113.5 46.5t-114 -46.5t-38 -104.5z" />
    <glyph glyph-name="cacute" unicode="&#x107;" 
d="M119 595l196 98l-50 59l-191 -103zM268 327h75v106q0 58 -38 105.5t-113 47.5t-113.5 -47.5t-38.5 -105.5v-293q0 -58 38 -106t114 -48t113.5 48t37.5 107v105h-75v-105q0 -33 -20 -59t-56 -26q-38 0 -57.5 25t-19.5 59v293q0 34 19.5 59t57.5 25q36 0 56 -25.5t20 -58.5
v-106z" />
    <glyph glyph-name="Ccircumflex" unicode="&#x108;" horiz-adv-x="437" 
d="M200 839l-160 -133h112l67 53l64 -53h113l-157 133h-39zM67 549v-410q0 -58 38 -104.5t113 -46.5q76 0 114 46.5t38 104.5v134h-74v-135q0 -32 -20.5 -56.5t-57.5 -24.5q-36 0 -57 24.5t-21 56.5v413q0 33 20.5 56t57.5 23t57.5 -23.5t20.5 -55.5v-136h74v134
q0 58 -38 104.5t-114 46.5t-113.5 -46t-37.5 -105z" />
    <glyph glyph-name="ccircumflex" unicode="&#x109;" horiz-adv-x="436" 
d="M239 729h-39l-160 -133h112l67 53l64 -53h113zM295 327h75v106q0 58 -38.5 105.5t-113.5 47.5q-76 0 -113.5 -47t-37.5 -106v-293q0 -59 37.5 -106.5t113.5 -47.5t114 48t38 107v105h-75v-105q0 -33 -20.5 -59t-56.5 -26q-38 0 -57.5 25t-19.5 59v293q0 34 19.5 59
t57.5 25q36 0 56.5 -25.5t20.5 -58.5v-106z" />
    <glyph glyph-name="Cdotaccent" unicode="&#x10a;" horiz-adv-x="384" 
d="M196 701q23 0 35.5 14.5t12.5 30.5t-12.5 31t-35.5 15t-36.5 -14.5t-13.5 -31.5q0 -16 13.5 -30.5t36.5 -14.5zM40 549v-410q0 -58 38 -104.5t114 -46.5q75 0 113 46.5t38 104.5v134h-74v-135q0 -32 -20.5 -56.5t-56.5 -24.5q-37 0 -57.5 24.5t-20.5 56.5v413q0 33 20 56
t58 23q36 0 56.5 -23.5t20.5 -55.5v-136h74v134q0 58 -37.5 104.5t-113.5 46.5t-114 -46.5t-38 -104.5z" />
    <glyph glyph-name="cdotaccent" unicode="&#x10b;" 
d="M195 617q23 0 36 15t13 32q0 15 -13.5 29.5t-35.5 14.5q-23 0 -36.5 -14t-13.5 -30q0 -17 13 -32t37 -15zM268 327h75v106q0 58 -38 105.5t-113 47.5t-113.5 -47.5t-38.5 -105.5v-293q0 -58 38 -106t114 -48t113.5 48t37.5 107v105h-75v-105q0 -33 -20 -59t-56 -26
q-38 0 -57.5 25t-19.5 59v293q0 34 19.5 59t57.5 25q36 0 56 -25.5t20 -58.5v-106z" />
    <glyph glyph-name="Ccaron" unicode="&#x10c;" horiz-adv-x="437" 
d="M40 827l153 -128q-67 -6 -100 -50.5t-33 -99.5v-410q0 -58 38 -104.5t113 -46.5q76 0 114 46.5t38 104.5v134h-74v-135q0 -32 -20.5 -56.5t-57.5 -24.5q-36 0 -56.5 24.5t-20.5 56.5v413q0 33 20 56t57 23t57.5 -23.5t20.5 -55.5v-136h74v134q0 51 -30 94.5t-90 53.5
l153 130h-113l-64 -53l-68 53h-111z" />
    <glyph glyph-name="ccaron" unicode="&#x10d;" horiz-adv-x="436" 
d="M152 729h-112l160 -133h39l157 133h-113l-64 -53zM294 327h75v106q0 58 -38.5 105.5t-113.5 47.5q-76 0 -113.5 -47t-37.5 -106v-293q0 -59 37.5 -106.5t113.5 -47.5t114 48t38 107v105h-75v-105q0 -33 -20.5 -59t-56.5 -26q-38 0 -57.5 25t-19.5 59v293q0 34 19.5 59
t57.5 25q36 0 56.5 -25.5t20.5 -58.5v-106z" />
    <glyph glyph-name="Dcaron" unicode="&#x10e;" horiz-adv-x="436" 
d="M200 693h39l157 134h-113l-64 -53l-67 53h-112zM61 0h148q73 0 120 36t47 91v439q0 57 -46.5 91.5t-120.5 34.5h-148v-692zM135 70v552h74q39 0 66 -14.5t27 -41.5v-439q0 -26 -28 -41.5t-65 -15.5h-74z" />
    <glyph glyph-name="dcaron" unicode="&#x10f;" horiz-adv-x="521" 
d="M345 532h81l63 168h-85zM40 433v-293q0 -58 38 -106t114 -48t113.5 47.5t37.5 106.5v552h-75v-123q-33 17 -76 17q-75 0 -113.5 -47.5t-38.5 -105.5zM268 433v-293q0 -33 -20 -58.5t-56 -25.5q-38 0 -57.5 25t-19.5 59v293q0 34 19.5 59t57.5 25q36 0 56 -25.5t20 -58.5z
" />
    <glyph glyph-name="Dcroat" unicode="&#x110;" horiz-adv-x="458" 
d="M418 127v439q0 57 -46 91.5t-120 34.5h-149v-295h-84v-73h84v-324h149q73 0 119.5 35.5t46.5 91.5zM179 622h73q39 0 65.5 -14.5t26.5 -41.5v-439q0 -26 -27 -41.5t-65 -15.5h-73v254h81v73h-81v225z" />
    <glyph glyph-name="dcroat" unicode="&#x111;" horiz-adv-x="446" 
d="M40 433v-293q0 -58 38 -106t114 -48t113.5 47.5t37.5 106.5v411h96v70h-96v71h-75v-71h-95v-36q-67 -6 -100 -51.5t-33 -100.5zM115 140v293q0 34 19.5 59t57.5 25q36 0 56 -25.5t20 -58.5v-293q0 -33 -20 -58.5t-56 -25.5q-37 0 -57 25.5t-20 58.5z" />
    <glyph glyph-name="Emacron" unicode="&#x112;" horiz-adv-x="362" 
d="M53 784v-70h241v70h-241zM115 622h200v70h-275v-692h276v70h-201v258h201v70h-201v224z" />
    <glyph glyph-name="emacron" unicode="&#x113;" 
d="M75 605h240v71h-240v-71zM343 280v156q0 59 -37.5 105t-113.5 46t-114 -46t-38 -105v-293q0 -59 38.5 -107t113.5 -48q76 0 113.5 48t37.5 107v105h-75v-8q0 -5 0.5 -22.5t0.5 -29.5q2 -32 -4 -61q-13 -69 -73 -69q-37 0 -57 25.5t-20 59.5v137h228zM115 350v86
q0 35 19 59t58 24q37 0 56.5 -25t19.5 -58v-86h-153z" />
    <glyph glyph-name="Ebreve" unicode="&#x114;" horiz-adv-x="362" 
d="M220 820v-12q0 -40 -50 -40q-29 0 -39 12.5t-10 36.5v3h-76v-8q0 -59 25 -87.5t100 -28.5q128 0 128 91v33h-78zM115 622h200v70h-275v-692h276v70h-201v258h201v70h-201v224z" />
    <glyph glyph-name="ebreve" unicode="&#x115;" 
d="M248 718v-12q0 -40 -50 -40q-29 0 -39 12.5t-10 36.5v3h-76v-8q0 -59 25 -87.5t100 -28.5q128 0 128 91v33h-78zM343 280v156q0 59 -37.5 105t-113.5 46t-114 -46t-38 -105v-293q0 -59 38.5 -107t113.5 -48q76 0 113.5 48t37.5 107v105h-75v-8q0 -5 0.5 -22.5t0.5 -29.5
q2 -32 -4 -61q-13 -69 -73 -69q-37 0 -57 25.5t-20 59.5v137h228zM115 350v86q0 35 19 59t58 24q37 0 56.5 -25t19.5 -58v-86h-153z" />
    <glyph glyph-name="Edotaccent" unicode="&#x116;" horiz-adv-x="362" 
d="M182 701q22 0 35.5 14.5t13.5 30.5q0 17 -13 31.5t-36 14.5t-36.5 -14.5t-13.5 -31.5q0 -16 13.5 -30.5t36.5 -14.5zM115 622h200v70h-275v-692h276v70h-201v258h201v70h-201v224z" />
    <glyph glyph-name="edotaccent" unicode="&#x117;" 
d="M195 617q23 0 36 15t13 32q0 15 -13.5 29.5t-35.5 14.5q-23 0 -36.5 -14t-13.5 -30q0 -17 13 -32t37 -15zM343 280v156q0 59 -37.5 105t-113.5 46t-114 -46t-38 -105v-293q0 -59 38.5 -107t113.5 -48q76 0 113.5 48t37.5 107v105h-75v-8q0 -5 0.5 -22.5t0.5 -29.5
q2 -32 -4 -61q-13 -69 -73 -69q-37 0 -57 25.5t-20 59.5v137h228zM115 350v86q0 35 19 59t58 24q37 0 56.5 -25t19.5 -58v-86h-153z" />
    <glyph glyph-name="Ecaron" unicode="&#x11a;" horiz-adv-x="442" 
d="M159 622h202v70h-109l144 123h-113l-64 -52l-67 52h-112l147 -123h-101v-692h276v70h-203v258h203v70h-203v224z" />
    <glyph glyph-name="ecaron" unicode="&#x11b;" horiz-adv-x="436" 
d="M200 596h39l157 133h-113l-64 -53l-67 53h-112zM369 280v156q0 59 -38 105t-114 46t-113.5 -46t-37.5 -105v-293q0 -59 37.5 -107t113.5 -48t114 48t38 107v105h-75v-8q0 -9 0.5 -32t0.5 -36q0 -45 -8 -64q-20 -50 -70 -50q-36 0 -56.5 26t-20.5 59v137h229zM140 350v86
q0 34 19.5 58.5t57.5 24.5t57.5 -24.5t19.5 -58.5v-86h-154z" />
    <glyph glyph-name="Gcircumflex" unicode="&#x11c;" horiz-adv-x="447" 
d="M40 704h112l67 53l64 -53h113l-157 133h-39zM189 366v-67h107v-161q0 -32 -20.5 -56.5t-57.5 -24.5q-36 0 -57 24.5t-21 56.5v413q0 33 20 56t58 23q37 0 57.5 -23.5t20.5 -55.5v-136h74v134q0 58 -38 104.5t-114 46.5t-113.5 -46t-37.5 -105v-410q0 -58 38 -104.5
t113 -46.5q76 0 114 46.5t38 104.5v227h-181z" />
    <glyph glyph-name="gcircumflex" unicode="&#x11d;" horiz-adv-x="430" 
d="M40 596h112l67 53l64 -53h113l-157 133h-39zM53 -1q6 -58 42 -99.5t109 -41.5q75 0 113 47.5t38 105.5v425q0 59 -37.5 105t-113.5 46t-114 -46t-38 -105v-293q0 -66 42.5 -110.5t109.5 -44.5q39 0 76 20q-1 -33 -20.5 -58t-55.5 -25q-66 0 -76 74h-75zM280 436v-293
q0 -33 -20 -59t-56 -26q-37 0 -57 25.5t-20 59.5v293q0 35 19 59t58 24q37 0 56.5 -25t19.5 -58z" />
    <glyph glyph-name="Gbreve" unicode="&#x11e;" horiz-adv-x="394" 
d="M343 415h-74v136q0 32 -20.5 55.5t-56.5 23.5q-39 0 -58.5 -22.5t-19.5 -56.5v-413q0 -32 20.5 -56.5t57.5 -24.5q36 0 56.5 24.5t20.5 56.5v161h-107v67h181v-227q0 -58 -37.5 -104.5t-113.5 -46.5t-114 46.5t-38 104.5v410q0 48 26 89t78 56q-47 7 -66 34t-19 80v8h76
v-3q0 -24 10 -36.5t39 -12.5q50 0 50 40v12h78v-33q0 -37 -21.5 -59.5t-57.5 -28.5q55 -13 82.5 -55t27.5 -91v-134z" />
    <glyph glyph-name="gbreve" unicode="&#x11f;" horiz-adv-x="378" 
d="M193 594q-75 0 -100 28.5t-25 87.5v8h76v-3q0 -24 10 -36.5t39 -12.5q50 0 50 40v12h78v-33q0 -91 -128 -91zM42 -1q6 -58 42 -99.5t109 -41.5q75 0 113 47.5t38 105.5v425q0 59 -37.5 105t-113.5 46t-114 -46t-38 -105v-293q0 -66 42.5 -110.5t109.5 -44.5q39 0 76 20
q-1 -33 -20.5 -58t-55.5 -25q-66 0 -76 74h-75zM269 436v-293q0 -33 -20 -59t-56 -26q-37 0 -57 25.5t-20 59.5v293q0 35 19 59t58 24q37 0 56.5 -25t19.5 -58z" />
    <glyph glyph-name="Gdotaccent" unicode="&#x120;" horiz-adv-x="394" 
d="M196 701q23 0 35.5 14.5t12.5 30.5t-12.5 31t-35.5 15t-36.5 -14.5t-13.5 -31.5q0 -16 13.5 -30.5t36.5 -14.5zM162 366v-67h107v-161q0 -32 -20.5 -56.5t-56.5 -24.5q-37 0 -57.5 24.5t-20.5 56.5v413q0 34 19.5 56.5t58.5 22.5q36 0 56.5 -23.5t20.5 -55.5v-136h74v134
q0 58 -37.5 104.5t-113.5 46.5t-114 -46.5t-38 -104.5v-410q0 -58 38 -104.5t114 -46.5t113.5 46.5t37.5 104.5v227h-181z" />
    <glyph glyph-name="gdotaccent" unicode="&#x121;" horiz-adv-x="378" 
d="M193 617q23 0 36 15t13 32q0 15 -13.5 29.5t-35.5 14.5q-23 0 -36.5 -14t-13.5 -30q0 -17 13 -32t37 -15zM42 -1q6 -58 42 -99.5t109 -41.5q75 0 113 47.5t38 105.5v425q0 59 -37.5 105t-113.5 46t-114 -46t-38 -105v-293q0 -66 42.5 -110.5t109.5 -44.5q39 0 76 20
q-1 -33 -20.5 -58t-55.5 -25q-66 0 -76 74h-75zM269 436v-293q0 -33 -20 -59t-56 -26q-37 0 -57 25.5t-20 59.5v293q0 35 19 59t58 24q37 0 56.5 -25t19.5 -58z" />
    <glyph glyph-name="Hcircumflex" unicode="&#x124;" horiz-adv-x="436" 
d="M200 841l-160 -133h112l67 53l64 -53h113l-157 133h-39zM377 692h-75v-294h-166v294h-74v-692h74v328h166v-328h75v692z" />
    <glyph glyph-name="hcircumflex" unicode="&#x125;" horiz-adv-x="436" 
d="M200 841l-160 -133h112l67 53l64 -53h113l-157 133h-39zM67 692v-692h74v433q0 33 20.5 58.5t56.5 25.5q37 0 57 -25.5t20 -58.5v-433h75v433q0 58 -38.5 105.5t-113.5 47.5q-44 0 -77 -17v123h-74z" />
    <glyph glyph-name="Hbar" unicode="&#x126;" horiz-adv-x="395" 
d="M81 778v-70h240v70h-240zM355 692h-75v-294h-165v294h-75v-692h75v328h165v-328h75v692z" />
    <glyph glyph-name="hbar" unicode="&#x127;" 
d="M75 778v-70h240v70h-240zM40 692v-692h75v433q0 33 20 58.5t57 25.5q36 0 56 -25.5t20 -58.5v-433h75v433q0 58 -38 105.5t-113 47.5q-44 0 -77 -17v123h-75z" />
    <glyph glyph-name="Itilde" unicode="&#x128;" horiz-adv-x="171" 
d="M113 788h-1q-10 8 -16 12l-16 13q-48 39 -86 39q-33 0 -53.5 -18t-20.5 -43v-16q0 -31 19 -45t58 -19l12 -1v65l-8 2q-1 0 -3.5 0.5t-4.5 0.5q0 1 -1 1v4v3h2q7 0 20 -9l32 -24q45 -39 87 -39q36 0 54 22t18 48q0 30 -16 46q-26 22 -44 22h-32v-64zM134 783l-1 -4
q-3 0 -11 3zM36 0h75v692h-75v-692z" />
    <glyph glyph-name="itilde" unicode="&#x129;" horiz-adv-x="157" 
d="M122 684l-2 2q-3 2 -8.5 6t-7.5 5l-16 13q-50 39 -85 39q-33 0 -53.5 -18.5t-20.5 -43.5v-15q0 -56 77 -65l12 -1v66l-8 2q-1 0 -4 0.5t-5 0.5v1v3l1 4h1q8 0 20 -10l32 -24q50 -39 87 -39q35 0 53.5 22.5t18.5 47.5q0 29 -16 45q-6 8 -19 16t-25 8h-32v-65zM143 679
l-1 -3q-1 0 -9 2zM44 0h75v587h-75v-587z" />
    <glyph glyph-name="Imacron" unicode="&#x12a;" horiz-adv-x="153" 
d="M-48 776v-70h241v70h-241zM36 0h76v692h-76v-692z" />
    <glyph glyph-name="imacron" unicode="&#x12b;" horiz-adv-x="172" 
d="M-53 699v-73h241v73h-241zM44 0h75v587h-75v-587z" />
    <glyph glyph-name="Idotaccent" unicode="&#x130;" horiz-adv-x="153" 
d="M81 721q23 0 35 14.5t12 30.5t-12 31.5t-35 15.5q-24 0 -37 -15.5t-13 -31.5t13.5 -30.5t36.5 -14.5zM40 0h74v692h-74v-692z" />
    <glyph glyph-name="dotlessi" unicode="&#x131;" horiz-adv-x="172" 
d="M48 0h75v587h-75v-587z" />
    <glyph glyph-name="Nacute" unicode="&#x143;" horiz-adv-x="398" 
d="M322 788l-50 58l-191 -101l45 -56zM42 692l1 -692h74v453l171 -453h68v692h-75v-459l-172 459h-67z" />
    <glyph glyph-name="nacute" unicode="&#x144;" 
d="M315 693l-50 59l-191 -103l45 -54zM268 434v-434h75v434q0 59 -37 105.5t-114 46.5q-76 0 -114 -46.5t-38 -105.5v-434h75v434q0 35 19 59t58 24q37 0 56.5 -25t19.5 -58z" />
    <glyph glyph-name="Ncaron" unicode="&#x147;" horiz-adv-x="440" 
d="M42 822l160 -134h39l157 134h-114l-63 -53l-67 53h-112zM63 692l1 -692h73v453l172 -453h68v692h-75v-459l-172 459h-67z" />
    <glyph glyph-name="ncaron" unicode="&#x148;" horiz-adv-x="436" 
d="M40 729l160 -133h39l157 133h-113l-64 -53l-67 53h-112zM294 434v-434h75v434q0 59 -37.5 105.5t-114.5 46.5q-76 0 -113.5 -46.5t-37.5 -105.5v-434h74v434q0 34 19.5 58.5t57.5 24.5t57.5 -24.5t19.5 -58.5z" />
    <glyph glyph-name="Omacron" unicode="&#x14c;" 
d="M75 703h240v71h-240v-71zM40 549v-410q0 -58 38 -104.5t114 -46.5q75 0 113 46.5t38 104.5v410q0 58 -37.5 104.5t-113.5 46.5t-114 -46.5t-38 -104.5zM269 551v-413q0 -31 -21 -56t-56 -25q-37 0 -57.5 24.5t-20.5 56.5v413q0 33 20 56t58 23q36 0 56.5 -23.5
t20.5 -55.5z" />
    <glyph glyph-name="omacron" unicode="&#x14d;" 
d="M75 605h240v71h-240v-71zM343 140v293q0 58 -38 105.5t-113 47.5t-113.5 -47.5t-38.5 -105.5v-293q0 -58 38 -106t114 -48t113.5 47.5t37.5 106.5zM268 433v-293q0 -33 -20 -58.5t-56 -25.5q-38 0 -57.5 25t-19.5 59v293q0 34 19.5 59t57.5 25q36 0 56 -25.5t20 -58.5z
" />
    <glyph glyph-name="Obreve" unicode="&#x14e;" 
d="M222 698q61 -10 91 -53.5t30 -95.5v-410q0 -58 -38 -104.5t-113 -46.5q-76 0 -114 46.5t-38 104.5v410q0 51 29.5 94.5t89.5 54.5q-56 6 -75 33.5t-19 80.5v8h76v-3q0 -24 10 -36.5t39 -12.5q50 0 50 40v12h78v-33q0 -79 -96 -89zM269 138v413q0 32 -20.5 55.5
t-56.5 23.5q-38 0 -58 -23t-20 -56v-413q0 -32 20.5 -56.5t57.5 -24.5q35 0 56 25t21 56z" />
    <glyph glyph-name="obreve" unicode="&#x14f;" 
d="M196 594q-75 0 -100 28.5t-25 87.5v8h76v-3q0 -24 10 -36.5t39 -12.5q50 0 50 40v12h78v-33q0 -91 -128 -91zM343 140v293q0 58 -38 105.5t-113 47.5t-113.5 -47.5t-38.5 -105.5v-293q0 -58 38 -106t114 -48t113.5 47.5t37.5 106.5zM268 433v-293q0 -33 -20 -58.5
t-56 -25.5q-38 0 -57.5 25t-19.5 59v293q0 34 19.5 59t57.5 25q36 0 56 -25.5t20 -58.5z" />
    <glyph glyph-name="Ohungarumlaut" unicode="&#x150;" horiz-adv-x="396" 
d="M251 846l-59 47l-165 -144l61 -41zM383 846l-59 47l-165 -144l61 -41zM48 549v-410q0 -58 38 -104.5t113 -46.5q76 0 114 46.5t38 104.5v410q0 58 -38 104.5t-114 46.5t-113.5 -46.5t-37.5 -104.5zM277 551v-413q0 -31 -21 -56t-57 -25t-56.5 24.5t-20.5 56.5v413
q0 33 20 56t57 23t57.5 -23.5t20.5 -55.5z" />
    <glyph glyph-name="ohungarumlaut" unicode="&#x151;" horiz-adv-x="396" 
d="M244 738l-59 47l-165 -144l61 -41zM376 738l-59 47l-165 -144l61 -41zM351 140v293q0 58 -38.5 105.5t-113.5 47.5t-113 -47.5t-38 -105.5v-293q0 -58 37.5 -106t113.5 -48q77 0 114.5 47.5t37.5 106.5zM123 140v293q0 34 19.5 59t56.5 25t57 -25.5t20 -58.5v-293
q0 -33 -20 -58.5t-57 -25.5t-56.5 25t-19.5 59z" />
    <glyph glyph-name="OE" unicode="&#x152;" horiz-adv-x="585" 
d="M545 398h-201v224h200v70h-275v-12q-35 20 -77 20q-76 0 -114 -46.5t-38 -104.5v-410q0 -58 38 -104.5t114 -46.5q42 0 77 20v-8h276v70h-201v258h201v70zM269 551v-413q0 -31 -21 -56t-56 -25q-37 0 -57.5 24.5t-20.5 56.5v413q0 33 20 56t58 23q36 0 56.5 -23.5
t20.5 -55.5z" />
    <glyph glyph-name="oe" unicode="&#x153;" horiz-adv-x="606" 
d="M566 280v156q0 59 -37.5 105t-113.5 46q-72 0 -111 -44q-44 44 -112 44q-76 0 -114 -46t-38 -105v-293q0 -59 38.5 -107t113.5 -48q64 0 112 46q43 -46 111 -46q76 0 113.5 48t37.5 107v105h-78v-105q0 -22 -11 -47t-29 -32q-18 -5 -33 -5q-37 0 -54.5 25t-17.5 59v137
h223zM263 437v-296q0 -33 -17.5 -57.5t-53.5 -24.5q-37 0 -54.5 24t-17.5 58v296q0 81 72 81q37 0 54 -23.5t17 -57.5zM343 350v86q0 33 17.5 57.5t54.5 24.5t54 -23.5t17 -58.5v-86h-143z" />
    <glyph glyph-name="Racute" unicode="&#x154;" horiz-adv-x="395" 
d="M271 843l-191 -101l40 -50h-80v-692h75v328h94q32 0 52 -14.5t20 -37.5v-276h74v276q0 55 -43 88q34 33 34 74v128q0 55 -44.5 90.5t-115.5 35.5h-49l184 93zM115 622h71q36 0 61 -15t25 -41v-130q0 -16 -20 -27t-44 -11h-93v224z" />
    <glyph glyph-name="racute" unicode="&#x155;" 
d="M315 693l-50 59l-191 -103l45 -54zM40 434v-434h75v434q0 35 19 59t58 24q35 0 55.5 -24t20.5 -55v-33h75v33q0 57 -38.5 102.5t-112.5 45.5q-76 0 -114 -46.5t-38 -105.5z" />
    <glyph glyph-name="Rcaron" unicode="&#x158;" horiz-adv-x="436" 
d="M192 692h-131v-692h74v328h95q32 0 52 -14.5t20 -37.5v-276h74v276q0 55 -44 88q35 32 35 74v128q0 47 -34 80.5t-90 42.5l153 130h-113l-64 -53l-67 53h-112zM135 622h71q37 0 62 -15t25 -41v-130q0 -16 -20 -27t-44 -11h-94v224z" />
    <glyph glyph-name="rcaron" unicode="&#x159;" horiz-adv-x="436" 
d="M40 729l160 -133h39l157 133h-113l-64 -53l-67 53h-112zM66 434v-434h74v434q0 34 19.5 58.5t57.5 24.5q36 0 56.5 -24t20.5 -55v-33h75v33q0 57 -39 102.5t-113 45.5q-76 0 -113.5 -46.5t-37.5 -105.5z" />
    <glyph glyph-name="Sacute" unicode="&#x15a;" horiz-adv-x="382" 
d="M314 785l-50 57l-191 -101l45 -55zM115 273h-75v-8q0 -26 0.5 -76.5t0.5 -76.5q0 -53 40.5 -88.5t110.5 -35.5q73 0 110.5 43.5t37.5 99.5q0 63 -29 116t-83 117q-9 12 -25 32t-28.5 36t-21.5 30q-34 54 -34 97q0 30 19 49.5t55 19.5q69 0 73 -54q1 -16 1 -52l1 -85v-22
h75v15q0 113 -2 145q-3 54 -40.5 89.5t-107.5 35.5q-73 0 -111.5 -42.5t-38.5 -98.5q0 -71 54 -148q14 -19 50 -62t53 -67q64 -97 64 -151q0 -31 -18.5 -51.5t-53.5 -20.5q-70 0 -76 54v16q0 23 -0.5 68t-0.5 68v8z" />
    <glyph glyph-name="sacute" unicode="&#x15b;" horiz-adv-x="380" 
d="M313 693l-50 59l-191 -103l45 -54zM191 -12q74 0 111.5 44t37.5 101q0 44 -30 84t-84 87l-40 38q-17 14 -35 36q-34 37 -34 71q0 69 72 69q33 0 55 -15t22 -40v-132h74v132q0 52 -40 88t-108 36q-73 0 -112 -41.5t-39 -96.5q0 -71 87 -156q9 -8 32.5 -26.5t34.5 -29.5
q70 -67 70 -105q0 -30 -19.5 -51.5t-54.5 -21.5q-34 0 -56 15t-22 39v135h-74v-135q0 -53 41.5 -89t110.5 -36z" />
    <glyph glyph-name="Scircumflex" unicode="&#x15c;" horiz-adv-x="435" 
d="M200 832l-160 -133h112l67 53l64 -53h113l-157 133h-39zM141 273h-74v-8q0 -26 0.5 -76.5t0.5 -76.5q0 -53 40.5 -88.5t109.5 -35.5q73 0 111 43.5t38 99.5q0 62 -29 115.5t-83 118.5q-52 61 -76 98q-34 54 -34 96q0 31 19 50t55 19q69 0 74 -54q1 -16 1 -52l1 -85v-22
h75v15q0 113 -2 145q-3 54 -41 89.5t-108 35.5q-74 0 -111.5 -42.5t-37.5 -98.5q0 -72 54 -149q13 -17 49 -60t53 -68q65 -95 65 -151q0 -31 -18.5 -51.5t-54.5 -20.5q-70 0 -76 54v16q0 23 -0.5 68t-0.5 68v8z" />
    <glyph glyph-name="scircumflex" unicode="&#x15d;" horiz-adv-x="435" 
d="M199 729l-160 -133h112l67 53l64 -53h113l-157 133h-39zM217 -12q74 0 112 44t38 101q0 44 -30 84t-84 88l-42 38q-17 16 -34 36q-34 37 -34 70q0 31 18 50t54 19q34 0 56 -15t22 -40v-132h74v132q0 52 -40.5 88t-108.5 36q-73 0 -111.5 -41t-38.5 -97q0 -73 87 -156
q8 -8 31.5 -26.5t34.5 -29.5q25 -23 48 -54t23 -51q0 -30 -19.5 -51.5t-55.5 -21.5q-33 0 -55.5 15t-22.5 39v135h-73v-135q0 -53 41.5 -89t109.5 -36z" />
    <glyph glyph-name="Scedilla" unicode="&#x15e;" horiz-adv-x="382" 
d="M151 -39h-52v-76q0 -32 24 -58t67 -26q37 0 60 20q33 30 33 76q0 43 -52 95q56 12 82.5 52t26.5 87q0 63 -29 116t-83 117q-9 12 -25 32t-28.5 36t-21.5 30q-34 56 -34 97q0 30 19 49.5t55 19.5q68 0 73 -53q2 -25 2 -152v-8h75l-2 160q-1 52 -40.5 88.5t-107.5 36.5
q-73 0 -111.5 -42.5t-38.5 -98.5q0 -67 54 -148q16 -22 51.5 -64.5t51.5 -64.5q7 -9 18.5 -28.5t12.5 -21.5q33 -61 33 -101q0 -31 -18.5 -51.5t-53.5 -20.5q-73 0 -76 53v70q0 13 -0.5 41t-0.5 42v8h-75v-8q0 -26 0.5 -76.5t0.5 -76.5q0 -43 28.5 -75t81.5 -44v-32z
M172 -47q6 -6 20 -22q18 -21 18 -34q0 -9 -6 -21q-4 -10 -11 -10q-13 0 -19 14q-2 10 -2 16q-1 5 -1 15q0 6 0.5 20.5t0.5 21.5z" />
    <glyph glyph-name="scedilla" unicode="&#x15f;" horiz-adv-x="380" 
d="M230 -8q56 12 83 52.5t27 88.5q0 54 -54 115q-21 23 -51 50l-50 45q-26 22 -47 52.5t-21 53.5q0 31 19 50t56 19q34 0 54 -14.5t20 -40.5v-132h74v132q0 52 -40 88t-108 36q-73 0 -112 -41.5t-39 -96.5q0 -73 87 -156q9 -8 32.5 -26.5t34.5 -29.5q24 -22 47 -53.5
t23 -51.5q0 -30 -19.5 -51.5t-54.5 -21.5q-34 0 -56 15t-22 39v135h-74v-135q0 -43 29 -75.5t82 -44.5v-15l1 -2q8 -10 13 -15h-66v-76q0 -32 24 -58t67 -26q37 0 60 20q33 30 33 76q0 43 -52 95zM171 -49l2 -2l25 -27q11 -15 11 -25q0 -9 -6 -21q-4 -10 -11 -10
q-14 0 -18 14q-4 9 -4 30q0 6 0.5 20t0.5 21z" />
    <glyph glyph-name="Scaron" unicode="&#x160;" horiz-adv-x="435" 
d="M40 822l149 -124q-59 -10 -89 -50t-30 -89q0 -72 54 -149q13 -17 49 -60t53 -68q65 -95 65 -151q0 -31 -18.5 -51.5t-54.5 -20.5q-70 0 -76 54v16q0 23 -0.5 68t-0.5 68v8h-74v-8q0 -26 0.5 -76.5t0.5 -76.5q0 -53 40.5 -88.5t109.5 -35.5q73 0 111 43.5t38 99.5
q0 62 -29 115.5t-83 118.5q-52 61 -76 98q-34 54 -34 96q0 31 19 50t55 19q69 0 74 -54q1 -16 1 -52l1 -85v-22h75v15q0 113 -2 145q-2 47 -32.5 81t-85.5 42l146 124h-114l-63 -53l-67 53h-112z" />
    <glyph glyph-name="scaron" unicode="&#x161;" horiz-adv-x="435" 
d="M39 729l160 -133h39l157 133h-113l-64 -53l-67 53h-112zM216 -12q74 0 112 44t38 101q0 44 -30 84t-84 88l-42 38q-17 16 -34 36q-34 37 -34 70q0 31 18 50t54 19q34 0 56 -15t22 -40v-132h74v132q0 52 -40.5 88t-108.5 36q-73 0 -111.5 -41t-38.5 -97q0 -73 87 -156
q8 -8 31.5 -26.5t34.5 -29.5q25 -23 48 -54t23 -51q0 -30 -19.5 -51.5t-55.5 -21.5q-33 0 -55.5 15t-22.5 39v135h-73v-135q0 -53 41.5 -89t109.5 -36z" />
    <glyph glyph-name="Tcaron" unicode="&#x164;" horiz-adv-x="436" 
d="M40 831l160 -133h39l157 133h-113l-64 -53l-68 53h-111zM392 622v70h-350v-70h139v-622h72v622h139z" />
    <glyph glyph-name="tcaron" unicode="&#x165;" horiz-adv-x="474" 
d="M319 587h-140v105h-77v-105h-62v-68h62v-380q0 -56 40 -104t113 -48q15 0 32 3q24 4 29 5l8 2v84l-15 -8q-32 -16 -54 -16q-36 0 -56 25.5t-20 58.5v378h146v13h55l62 168h-85z" />
    <glyph glyph-name="Tbar" unicode="&#x166;" horiz-adv-x="430" 
d="M96 778v-70h241v70h-241zM390 622v70h-350v-70h139v-622h72v622h139z" />
    <glyph glyph-name="tbar" unicode="&#x167;" horiz-adv-x="335" 
d="M45 723v-70h57v-66h-62v-68h62v-380q0 -56 40 -104t113 -48q15 0 32 3q24 4 29 5l8 2v84l-15 -8q-32 -16 -54 -16q-36 0 -56 25.5t-20 58.5v378h146v68h-146v66h107v70h-241z" />
    <glyph glyph-name="Utilde" unicode="&#x168;" 
d="M125 762q1 2 1 5q7 -1 19 -8q10 -6 15 -10q10 -8 16 -12q46 -35 81 -35t53.5 23t18.5 49q0 20 -15.5 43.5t-43.5 23.5h-37l5 -63l-29 22q-43 35 -87 35q-26 0 -50 -22l-1 -1h-2l-5 -3q-8 -5 -10 -8l-1 -2v-35q0 -21 14 -41q17 -27 44 -27h32v56l-3 3q-6 4 -15 7zM240 776
l6 -1h11v-3l-1 -1v-2q-6 2 -16 7zM343 139v553h-74v-554q0 -31 -21 -56t-56 -25q-37 0 -57.5 24.5t-20.5 56.5v554h-74v-553q0 -58 38 -104.5t114 -46.5q75 0 113 46.5t38 104.5z" />
    <glyph glyph-name="utilde" unicode="&#x169;" 
d="M125 659v5q1 0 1 1q7 -1 19 -8l15 -10q10 -8 15 -13q45 -34 82 -34q36 0 54 22.5t18 48.5q0 21 -15.5 44.5t-43.5 23.5h-37l5 -63q-5 3 -14.5 11t-14.5 11q-45 35 -87 35q-15 0 -39 -13q-17 -10 -28 -23l-2 -2v-33q0 -21 14 -41q17 -27 44 -27h32v55l-3 3l-6 3
q-1 1 -2.5 2t-2.5 1q-3 0 -4 1zM242 673h3q8 -2 12 -2v-2q0 -1 -0.5 -1t-0.5 -1l-4 1zM343 587h-75v-445q0 -33 -20 -58.5t-56 -25.5q-38 0 -57.5 25t-19.5 59v445h-75v-445q0 -59 38 -106.5t114 -47.5q40 0 70.5 14.5t47.5 38t25 49t8 52.5v445z" />
    <glyph glyph-name="Umacron" unicode="&#x16a;" 
d="M62 768v-71h241v71h-241zM343 139v553h-74v-554q0 -31 -21 -56t-56 -25q-37 0 -57.5 24.5t-20.5 56.5v554h-74v-553q0 -58 38 -104.5t114 -46.5q75 0 113 46.5t38 104.5z" />
    <glyph glyph-name="umacron" unicode="&#x16b;" 
d="M75 676v-71h240v71h-240zM343 587h-75v-445q0 -33 -20 -58.5t-56 -25.5q-38 0 -57.5 25t-19.5 59v445h-75v-445q0 -59 38 -106.5t114 -47.5q40 0 70.5 14.5t47.5 38t25 49t8 52.5v445z" />
    <glyph glyph-name="Ubreve" unicode="&#x16c;" 
d="M243 820v-12q0 -40 -50 -40q-29 0 -39 12.5t-10 36.5v3h-76v-8q0 -59 25 -87.5t100 -28.5q128 0 128 91v33h-78zM343 139v553h-74v-554q0 -31 -21 -56t-56 -25q-37 0 -57.5 24.5t-20.5 56.5v554h-74v-553q0 -58 38 -104.5t114 -46.5q75 0 113 46.5t38 104.5z" />
    <glyph glyph-name="ubreve" unicode="&#x16d;" 
d="M146 718h-73v-8q0 -60 24.5 -88t100.5 -28q127 0 127 91v33h-78v-8q0 -19 -1 -27q0 -9 -3 -13q-8 -6 -45 -6q-39 0 -46 7q-3 2 -5 13q-1 7 -1 26v8zM343 587h-75v-445q0 -33 -20 -58.5t-56 -25.5q-38 0 -57.5 25t-19.5 59v445h-75v-445q0 -59 38 -106.5t114 -47.5
q40 0 70.5 14.5t47.5 38t25 49t8 52.5v445z" />
    <glyph glyph-name="Uring" unicode="&#x16e;" 
d="M202 709q-36 0 -55 23t-19 49q0 27 18.5 49.5t55.5 22.5t54.5 -23t17.5 -49q0 -27 -17.5 -49.5t-54.5 -22.5zM201 763q18 0 18 18t-18 18t-18 -18q0 -6 5 -12t13 -6zM343 692h-74v-554q0 -31 -21 -56t-56 -25q-37 0 -57.5 24.5t-20.5 56.5v554h-74v-553q0 -58 38 -104.5
t114 -46.5q75 0 113 46.5t38 104.5v553z" />
    <glyph glyph-name="uring" unicode="&#x16f;" 
d="M201 609q-36 0 -55 23t-19 49q0 27 18.5 49.5t55.5 22.5t54.5 -23t17.5 -49q0 -27 -17.5 -49.5t-54.5 -22.5zM200 663q18 0 18 18t-18 18t-18 -18q0 -6 5 -12t13 -6zM343 587h-75v-445q0 -33 -20 -58.5t-56 -25.5q-38 0 -57.5 25t-19.5 59v445h-75v-445q0 -59 38 -106.5
t114 -47.5q40 0 70.5 14.5t47.5 38t25 49t8 52.5v445z" />
    <glyph glyph-name="Uhungarumlaut" unicode="&#x170;" horiz-adv-x="396" 
d="M251 846l-59 47l-165 -144l61 -41zM383 846l-59 47l-165 -144l61 -41zM351 139v553h-74v-554q0 -31 -21 -56t-57 -25t-56.5 24.5t-20.5 56.5v554h-74v-553q0 -58 38 -104.5t113 -46.5q76 0 114 46.5t38 104.5z" />
    <glyph glyph-name="uhungarumlaut" unicode="&#x171;" horiz-adv-x="396" 
d="M244 738l-59 47l-165 -144l61 -41zM376 738l-59 47l-165 -144l61 -41zM351 587h-75v-445q0 -33 -20 -58.5t-57 -25.5t-56.5 25t-19.5 59v445h-75v-445q0 -59 37.5 -106.5t113.5 -47.5q77 0 114.5 47.5t37.5 106.5v445z" />
    <glyph glyph-name="Uogonek" unicode="&#x172;" 
d="M209 -27q9 13 10 17q64 11 94 53.5t30 95.5v553h-74v-554q0 -32 -20.5 -56.5t-56.5 -24.5t-57 25t-21 56v554h-74v-553q0 -43 22.5 -83.5t69.5 -57.5q-41 -44 -41 -91q0 -33 21.5 -64.5t65.5 -31.5q46 0 69.5 26.5t23.5 61.5v72h-64zM200 -36v-52v-14q-2 -11 -3 -12
q-3 -8 -18 -8q-8 0 -13 10q-6 10 -6 21q0 17 29 44z" />
    <glyph glyph-name="Wcircumflex" unicode="&#x174;" horiz-adv-x="487" 
d="M227 834l-163 -133h114l65 53l67 -53h111l-158 133h-36zM447 692h-80l-25 -377l-64 377h-69l-64 -377l-25 377h-80l53 -692h77l72 444l75 -444h78z" />
    <glyph glyph-name="wcircumflex" unicode="&#x175;" horiz-adv-x="487" 
d="M227 729l-163 -133h114l65 53l67 -53h111l-158 133h-36zM40 587l53 -587h77l71 377l77 -377h78l51 587h-78l-27 -321l-65 321h-68l-63 -318l-27 318h-79z" />
    <glyph glyph-name="Ycircumflex" unicode="&#x176;" horiz-adv-x="449" 
d="M208 834l-159 -133h111l68 53l64 -53h112l-157 133h-39zM200 0h72v233q0 12 -2 32t-2 24q-2 29 3 54l138 349h-79l-96 -250l-112 250h-82l107 -239q13 -24 30 -55q16 -31 22 -56q4 -22 4 -54q-4 -36 -4 -57z" />
    <glyph glyph-name="ycircumflex" unicode="&#x177;" horiz-adv-x="432" 
d="M200 729l-160 -133h112l67 53l64 -53h113l-157 133h-39zM295 587h75v-576q0 -58 -38 -105.5t-113 -47.5q-73 0 -109 41.5t-42 99.5h75q10 -74 76 -74q36 0 55.5 25t20.5 58q-37 -20 -76 -20q-67 0 -109.5 44.5t-42.5 110.5v444h75v-444q0 -34 20 -59.5t57 -25.5
q36 0 56 26t20 59v444z" />
    <glyph glyph-name="Ydieresis" unicode="&#x178;" horiz-adv-x="449" 
d="M273 701q23 0 36 14.5t13 30.5q0 17 -13 31.5t-36 14.5q-38 0 -46 -36q-3 15 -15.5 26t-32.5 11q-23 0 -36.5 -14.5t-13.5 -31.5q0 -16 13.5 -30.5t36.5 -14.5q37 0 48 35q3 -14 14.5 -25t31.5 -11zM200 0h72v233q0 12 -2 32t-2 24q-2 29 3 54l138 349h-79l-96 -250
l-112 250h-82l107 -239q13 -24 30 -55q16 -31 22 -56q4 -22 4 -54q-4 -36 -4 -57z" />
    <glyph glyph-name="Zacute" unicode="&#x179;" horiz-adv-x="419" 
d="M275 624l-235 -624h328v68h-223l234 624h-237l192 97l-50 58l-191 -101l43 -54h-83v-68h222z" />
    <glyph glyph-name="zacute" unicode="&#x17a;" horiz-adv-x="424" 
d="M337 693l-50 59l-192 -103l46 -54zM397 69h-242l259 518h-357v-68h243l-260 -519h357v69z" />
    <glyph glyph-name="Zdotaccent" unicode="&#x17b;" horiz-adv-x="419" 
d="M213 701q22 0 35 15t13 30q0 16 -12.5 31t-35.5 15t-36 -14.5t-13 -31.5q0 -16 13.5 -30.5t35.5 -14.5zM275 624l-235 -624h328v68h-223l234 624h-326v-68h222z" />
    <glyph glyph-name="zdotaccent" unicode="&#x17c;" horiz-adv-x="424" 
d="M216 617q24 0 36 15t12 32q0 16 -12.5 30t-35.5 14q-22 0 -35.5 -14.5t-13.5 -29.5q0 -17 13 -32t36 -15zM397 69h-242l259 518h-357v-68h243l-260 -519h357v69z" />
    <glyph glyph-name="Zcaron" unicode="&#x17d;" horiz-adv-x="436" 
d="M282 624l-235 -624h328v68h-223l234 624h-140l150 127h-113l-64 -53l-68 53h-111l152 -127h-132v-68h222z" />
    <glyph glyph-name="zcaron" unicode="&#x17e;" horiz-adv-x="428" 
d="M40 729l160 -133h39l157 133h-113l-64 -53l-68 53h-111zM401 69h-242l259 518h-357v-68h243l-260 -519h357v69z" />
    <glyph glyph-name="circumflex" unicode="&#x2c6;" horiz-adv-x="436" 
d="M200 729l-160 -133h112l67 53l64 -53h113l-157 133h-39z" />
    <glyph glyph-name="caron" unicode="&#x2c7;" horiz-adv-x="406" 
d="M20 729l160 -133h39l157 133h-113l-64 -53l-67 53h-112z" />
    <glyph glyph-name="breve" unicode="&#x2d8;" horiz-adv-x="303" 
d="M200 718v-12q0 -40 -50 -40q-29 0 -39 12.5t-10 36.5v3h-76v-8q0 -59 25 -87.5t100 -28.5q128 0 128 91v33h-78z" />
    <glyph glyph-name="dotaccent" unicode="&#x2d9;" horiz-adv-x="177" 
d="M90 617q22 0 34.5 15.5t12.5 31.5t-12 30t-35 14t-36.5 -14t-13.5 -30q0 -17 13 -32t37 -15z" />
    <glyph glyph-name="ring" unicode="&#x2da;" horiz-adv-x="226" 
d="M99 609q-36 0 -55 23t-19 49q0 27 18.5 49.5t55.5 22.5t54.5 -23t17.5 -49q0 -27 -17.5 -49.5t-54.5 -22.5zM98 663q18 0 18 18t-18 18t-18 -18q0 -6 5 -12t13 -6z" />
    <glyph glyph-name="tilde" unicode="&#x2dc;" horiz-adv-x="301" 
d="M85 659v6q7 -1 19 -8l15 -10q10 -8 15 -13q45 -34 82 -34q36 0 54 22.5t18 48.5q0 41 -38 61l-4 3q-4 2 -8 3q-2 1 -7 1h-38l4 -63q-3 2 -28 22q-50 35 -86 35t-69 -36l-2 -3v-32q0 -36 31 -56q4 -2 5 -3q2 -3 7 -4q7 -5 17 -5h31v55l-3 3q-2 2 -6 3l-6 3zM202 673l3 -1
q1 0 4 -0.5t5 -0.5q0 -1 2 -1v-1q0 -1 -0.5 -1t-0.5 -1l-1 1h-3q-3 1 -9 5z" />
    <glyph glyph-name="hungarumlaut" unicode="&#x2dd;" horiz-adv-x="384" 
d="M241 738l-59 47l-165 -144l61 -41zM373 738l-59 47l-165 -144l61 -41z" />
    <glyph glyph-name="uni0327" unicode="&#x327;" horiz-adv-x="0" 
d="M-224 -39h-63v-64q0 -37 20 -66.5t69 -29.5q46 0 71 30.5t25 65.5q0 28 -20 56q-5 9 -20 24q-9 11 -20 20q2 22 2 31v28h-66l-1 -7q-6 -31 -6 -61q0 -16 9 -27zM-213 -53l9 -9q27 -27 27 -41q0 -9 -6 -21q-5 -10 -12 -10q-12 0 -16 14l-3 16v15q0 5 0.5 17.5t0.5 18.5z
" />
    <glyph glyph-name="uni03A9" unicode="&#x3a9;" horiz-adv-x="675" 
d="M433 41h12v-17l190 -2v75l-99 1q24 68 48 138q1 5 10 30t14 41q18 52 18 72q0 50 -16 97.5t-47.5 89.5t-87.5 67.5t-129 25.5q-74 0 -130.5 -25.5t-88.5 -67.5t-47.5 -90.5t-15.5 -99.5v-2v-5l81 -271h-105v-76l201 2v46v3v4l-93 310q-1 6 5 33q7 28 12 37
q51 123 181 123q128 0 178 -125q15 -38 15 -72q-1 -1 -1 -3q0 -1 -1 -3.5t-1 -3.5l-4 -12l-16 -56q-57 -189 -77 -245z" />
    <glyph glyph-name="uni03BC" unicode="&#x3bc;" horiz-adv-x="391" 
d="M40 -401h77l4 538q39 -18 80 -18q38 0 70 17v-136h80v706h-80v-422q0 -36 -16 -63q-18 -33 -54 -33q-39 0 -58 25.5t-19 60.5v432h-76v-46z" />
    <glyph glyph-name="pi" unicode="&#x3c0;" horiz-adv-x="368" 
d="M40 266h45v-260h73v260h51v-260h74v260h45v74h-288v-74z" />
    <glyph glyph-name="Wgrave" unicode="&#x1e80;" horiz-adv-x="487" 
d="M305 684l47 56l-189 100l-60 -57zM447 692h-80l-25 -377l-64 377h-69l-64 -377l-25 377h-80l53 -692h77l72 444l75 -444h78z" />
    <glyph glyph-name="wgrave" unicode="&#x1e81;" horiz-adv-x="487" 
d="M324 588l48 54l-189 103l-60 -59zM40 587l53 -587h77l71 377l77 -377h78l51 587h-78l-27 -321l-65 321h-68l-63 -318l-27 318h-79z" />
    <glyph glyph-name="Wacute" unicode="&#x1e82;" horiz-adv-x="487" 
d="M447 692h-80l-25 -377l-64 377h-35l123 62l-51 59l-194 -103l49 -55l36 18l-61 -358l-25 377h-80l53 -692h77l72 444l75 -444h78z" />
    <glyph glyph-name="wacute" unicode="&#x1e83;" horiz-adv-x="487" 
d="M369 693l-51 59l-194 -103l49 -54zM40 587l53 -587h77l71 377l77 -377h78l51 587h-78l-27 -321l-65 321h-68l-63 -318l-27 318h-79z" />
    <glyph glyph-name="Wdieresis" unicode="&#x1e84;" horiz-adv-x="487" 
d="M291 701q22 0 35.5 14.5t13.5 30.5q0 17 -13 31.5t-36 14.5q-35 0 -48 -32q-11 33 -46 33q-23 0 -36.5 -14.5t-13.5 -31.5q0 -16 13.5 -30.5t36.5 -14.5q33 0 46 32q10 -33 48 -33zM447 692h-80l-25 -377l-64 377h-69l-64 -377l-25 377h-80l53 -692h77l72 444l75 -444h78
z" />
    <glyph glyph-name="wdieresis" unicode="&#x1e85;" horiz-adv-x="487" 
d="M292 617q23 0 36 15t13 32q0 15 -13.5 29.5t-35.5 14.5q-36 0 -48 -32q-10 33 -46 33q-23 0 -36.5 -14t-13.5 -30q0 -17 13 -32t37 -15q36 0 46 33q10 -34 48 -34zM40 587l53 -587h77l71 377l77 -377h78l51 587h-78l-27 -321l-65 321h-68l-63 -318l-27 318h-79z" />
    <glyph glyph-name="Ygrave" unicode="&#x1ef2;" horiz-adv-x="449" 
d="M294 668l47 55l-189 102l-57 -58zM200 0h72v233q0 12 -2 32t-2 24q-2 29 3 54l138 349h-79l-96 -250l-112 250h-82l107 -239q13 -24 30 -55q16 -31 22 -56q4 -22 4 -54q-4 -36 -4 -57z" />
    <glyph glyph-name="ygrave" unicode="&#x1ef3;" horiz-adv-x="384" 
d="M251 590l48 54l-188 103l-58 -59zM270 587h75v-576q0 -58 -38 -105.5t-113 -47.5q-73 0 -109 41.5t-42 99.5h75q10 -74 76 -74q36 0 55.5 25t20.5 58q-37 -20 -76 -20q-67 0 -109.5 44.5t-42.5 110.5v444h75v-444q0 -34 20 -59.5t57 -25.5q36 0 56 26t20 59v444z" />
    <glyph glyph-name="endash" unicode="&#x2013;" horiz-adv-x="449" 
d="M40 426v-70h369v70h-369z" />
    <glyph glyph-name="emdash" unicode="&#x2014;" horiz-adv-x="564" 
d="M40 426v-70h484v70h-484z" />
    <glyph glyph-name="quoteleft" unicode="&#x2018;" horiz-adv-x="220" 
d="M98 700l-58 -168h81l59 168h-82z" />
    <glyph glyph-name="quoteright" unicode="&#x2019;" horiz-adv-x="220" 
d="M98 700l-58 -168h81l59 168h-82z" />
    <glyph glyph-name="quotesinglbase" unicode="&#x201a;" horiz-adv-x="220" 
d="M98 41l-58 -168h81l59 168h-82z" />
    <glyph glyph-name="quotedblleft" unicode="&#x201c;" horiz-adv-x="267" 
d="M94 697l-54 -155h61l54 155h-61zM164 697l-54 -155h61l56 155h-63z" />
    <glyph glyph-name="quotedblright" unicode="&#x201d;" horiz-adv-x="267" 
d="M94 697l-54 -155h61l54 155h-61zM164 697l-54 -155h61l56 155h-63z" />
    <glyph glyph-name="quotedblbase" unicode="&#x201e;" horiz-adv-x="267" 
d="M94 26l-54 -155h61l54 155h-61zM164 26l-54 -155h61l56 155h-63z" />
    <glyph glyph-name="dagger" unicode="&#x2020;" horiz-adv-x="347" 
d="M307 340v70h-95v278h-77v-278h-95v-70h95v-438h77v438h95z" />
    <glyph glyph-name="daggerdbl" unicode="&#x2021;" horiz-adv-x="282" 
d="M180 315h126v69h-126v304h-76v-304h-129v-69h129v-52h-129v-69h129v-292h76v292h126v69h-126v52z" />
    <glyph glyph-name="bullet" unicode="&#x2022;" horiz-adv-x="177" 
d="M40 344v-72q0 -18 13 -28.5t37 -10.5q47 0 47 39v72q0 17 -12.5 28t-34.5 11q-23 0 -36.5 -11t-13.5 -28z" />
    <glyph glyph-name="ellipsis" unicode="&#x2026;" horiz-adv-x="545" 
d="M458 -12q22 0 34.5 15.5t12.5 30.5q0 16 -12 31t-35 15t-36 -14.5t-13 -31.5q0 -16 13 -31t36 -15zM90 -13q22 0 34.5 15.5t12.5 30.5q0 16 -12.5 31t-34.5 15q-23 0 -36.5 -14.5t-13.5 -31.5q0 -16 13.5 -31t36.5 -15zM272 -13q23 0 36 15t13 31q0 17 -13 31.5t-36 14.5
q-24 0 -36.5 -15t-12.5 -31t12.5 -31t36.5 -15z" />
    <glyph glyph-name="perthousand" unicode="&#x2030;" horiz-adv-x="1067" 
d="M44 637v-210q0 -38 29.5 -67t79.5 -29q53 0 81.5 28t28.5 68v210q0 40 -28.5 68t-81.5 28q-52 0 -80.5 -28t-28.5 -68zM572 658l-65 42l-467 -648l65 -39zM187 637v-210q0 -25 -34 -25q-30 0 -30 25v210q0 27 30 27q34 0 34 -27zM808 278v-210q0 -38 29.5 -67t79.5 -29
q53 0 81.5 28t28.5 68v210q0 40 -28.5 68t-81.5 28q-52 0 -80.5 -28t-28.5 -68zM328 274v-210q0 -38 29.5 -67t79.5 -29q53 0 81.5 28t28.5 68v210q0 40 -28.5 68t-81.5 28q-52 0 -80.5 -28t-28.5 -68zM569 274v-210q0 -38 29.5 -67t79.5 -29q53 0 81.5 28t28.5 68v210
q0 40 -28.5 68t-81.5 28q-52 0 -80.5 -28t-28.5 -68zM951 278v-210q0 -25 -34 -25q-30 0 -30 25v210q0 27 30 27q34 0 34 -27zM471 274v-210q0 -25 -34 -25q-30 0 -30 25v210q0 27 30 27q34 0 34 -27zM712 274v-210q0 -25 -34 -25q-30 0 -30 25v210q0 27 30 27q34 0 34 -27z
" />
    <glyph glyph-name="guilsinglleft" unicode="&#x2039;" horiz-adv-x="361" 
d="M40 369l173 -157h107l-171 157l172 154h-108z" />
    <glyph glyph-name="guilsinglright" unicode="&#x203a;" horiz-adv-x="344" 
d="M199 369l-159 -157h104l160 157l-160 154h-104z" />
    <glyph glyph-name="fraction" unicode="&#x2044;" horiz-adv-x="367" 
d="M-20 -9l75 -22l332 732l-76 14z" />
    <glyph glyph-name="Euro" unicode="&#x20ac;" horiz-adv-x="442" 
d="M40 260h52v-121q0 -59 37 -105t113 -46t114.5 46t38.5 105v78h-78v-78q0 -34 -18.5 -57t-56.5 -23q-37 0 -55.5 23t-18.5 56v122h234v69h-234v46h234v69h-234v105q0 33 18.5 56t55.5 23q39 0 57 -21.5t18 -55.5v-83h78v81q0 59 -38 105t-115 46q-76 0 -113 -46t-37 -105
v-105h-52v-69h52v-46h-52v-69z" />
    <glyph glyph-name="trademark" unicode="&#x2122;" horiz-adv-x="392" 
d="M40 693v-52h56v-247h52v247h22v-247h56v47l10 -47h47l15 60v-60h54v299h-51l-41 -163l-37 163h-183z" />
    <glyph glyph-name="summation" unicode="&#x2211;" horiz-adv-x="528" 
d="M488 509h-287q-79 0 -120 -42.5t-41 -103.5q0 -68 51 -109q-51 -39 -51 -108q0 -60 41 -103t120 -43h287v71h-286q-41 0 -63.5 20.5t-22.5 53.5q0 31 22.5 52t61.5 21l288 1v71h-288q-40 0 -62 21t-22 53q0 33 22.5 54t63.5 21h286v70z" />
    <glyph glyph-name="minus" unicode="&#x2212;" horiz-adv-x="565" 
d="M40 324v-70h485v70h-485z" />
    <glyph glyph-name="radical" unicode="&#x221a;" horiz-adv-x="953" 
d="M112 17l299 656l502 -2l-16 71l-539 3l-241 -531v50h-77v-254h10h29q18 2 29 6z" />
    <glyph glyph-name="infinity" unicode="&#x221e;" horiz-adv-x="670" 
d="M288 509h-167q-45 0 -66 -41q-15 -26 -15 -65q0 -37 15 -62q21 -41 66 -41h167q25 0 48 16q20 -16 45 -16h166q45 0 68 40q15 26 15 63q0 38 -14 65q-22 41 -69 41h-166q-27 0 -45 -15q-20 15 -48 15zM123 371q-1 0 -1 0.5t-1 0.5q-3 6 -4 10q-5 15 -5 21q0 11 4 23
q1 2 2.5 5.5t1.5 4.5l2 1h166q6 0 9 -11q3 -12 3 -23t-5 -21q-1 -5 -5 -9l-2 -2h-165zM381 437h166q6 0 9 -11q3 -12 3 -23t-5 -21q-1 -5 -5 -9l-2 -2h-166l-1 1q-4 6 -6 10q-4 12 -4 21q0 11 4 23q1 5 5 9z" />
    <glyph glyph-name="integral" unicode="&#x222b;" horiz-adv-x="440" 
d="M364 804q-15 3 -31 3q-73 0 -112.5 -47.5t-39.5 -104.5v-509q0 -83 -79 -83q-12 0 -23 4q-4 1 -25 8l-14 4v-78l8 -2l30 -5q16 -3 31 -3q72 0 111.5 48.5t39.5 103.5v509q0 83 80 83q20 0 44 -12l16 -7v81l-8 2q-7 1 -28 5z" />
    <glyph glyph-name="approxequal" unicode="&#x2248;" horiz-adv-x="365" 
d="M121 304q5 0 19 -9q2 -1 6.5 -4l7.5 -5q1 -1 6.5 -6t9.5 -7q46 -37 83 -37q35 0 53.5 23t18.5 49q0 33 -19 49q19 22 19 50q0 21 -7 34.5t-27 25.5q-11 8 -26 8h-32v-64q-1 0 -1 1q-1 1 -6 4.5t-8 5.5q-11 11 -14 13q-42 36 -84 36q-28 0 -66 -30l-3 -3l-2 -2v-38
q0 -30 19 -48q-1 -1 -7.5 -6t-9.5 -8l-2 -2v-36q0 -39 39 -61q0 -1 2 -1q1 0 2 -1l5 -2q8 -2 12 -2h31v7q0 24 -1 29q-5 21 -16 26l-1 1v3l-2 3v2zM244 405h1l3 1h4h2v-1l-1 -2q-3 0 -9 2zM120 401v1l1 2q2 0 8 -2zM140 397q6 -4 14 -10q4 -4 14 -12q39 -30 67 -37
q6 -20 19 -28v-4v-3h-1q-6 0 -18 8q-3 1 -13 9t-14 12q-42 30 -68 35v30z" />
    <glyph glyph-name="notequal" unicode="&#x2260;" horiz-adv-x="423" 
d="M329 384l54 76l-63 44l-85 -120h-195v-69h151l-38 -52h-113v-69h65l-54 -79l63 -40l84 119h173v69h-126l35 52h91v69h-42z" />
    <glyph glyph-name="lessequal" unicode="&#x2264;" horiz-adv-x="565" 
d="M114 641l337 -192v84l-221 129l221 126v86l-337 -192v-41zM40 324v-70h485v70h-485z" />
    <glyph glyph-name="greaterequal" unicode="&#x2265;" horiz-adv-x="565" 
d="M113 533v-84l339 192v41l-339 191v-85l225 -126zM40 324v-70h485v70h-485z" />
    <glyph glyph-name="P.alt" horiz-adv-x="395" 
d="M40 692v-692h75v256h94q70 0 108 37t38 90v182q0 53 -38.5 90t-107.5 37h-169zM281 565v-182q0 -26 -19.5 -42t-52.5 -16h-94v296h94q33 0 52.5 -15t19.5 -41z" />
    <glyph glyph-name="V.alt" horiz-adv-x="423" 
d="M40 692l136 -692h72l135 692h-81l-90 -473l-90 473h-82z" />
    <glyph glyph-name="a.alt" 
d="M343 0v434q0 59 -37 105.5t-114 46.5q-75 0 -113.5 -47.5t-38.5 -105.5v-293q0 -58 38 -106t114 -48q41 0 76 19v-5h75zM268 433v-293q0 -33 -20 -58.5t-56 -25.5q-38 0 -57.5 25t-19.5 59v293q0 34 19.5 59t57.5 25q36 0 56 -25.5t20 -58.5z" />
    <glyph glyph-name="b.alt" 
d="M115 5q36 -19 77 -19q76 0 113.5 47.5t37.5 106.5v293q0 58 -38 105.5t-113 47.5q-44 0 -77 -17v123h-75v-692h75v5zM268 433v-293q0 -33 -20 -58.5t-56 -25.5q-37 0 -57 25.5t-20 58.5v293q0 33 20 58.5t57 25.5t56.5 -25t19.5 -59z" />
    <glyph glyph-name="d.alt" 
d="M268 692v-123q-33 17 -76 17q-75 0 -113.5 -47.5t-38.5 -105.5v-293q0 -58 38 -106t114 -48q41 0 76 19v-5h75v692h-75zM115 140v293q0 34 19.5 59t57.5 25q36 0 56 -25.5t20 -58.5v-293q0 -33 -20 -58.5t-56 -25.5q-38 0 -57.5 25t-19.5 59z" />
    <glyph glyph-name="g.alt" horiz-adv-x="384" 
d="M269 587h75v-576q0 -58 -38 -105.5t-113 -47.5q-73 0 -109 41.5t-42 99.5h75q10 -74 76 -74q36 0 55.5 25t20.5 58q-37 -20 -76 -20q-67 0 -109.5 44.5t-42.5 110.5v293q0 59 38 105t114 46q43 0 76 -17v17zM193 58q36 0 56 26t20 59v293q0 33 -19.5 58t-56.5 25
q-39 0 -58 -24t-19 -59v-293q0 -34 20 -59.5t57 -25.5z" />
    <glyph glyph-name="m.alt" horiz-adv-x="611" 
d="M571 0v434q0 59 -37.5 105.5t-113.5 46.5q-71 0 -114 -46q-41 46 -114 46q-44 0 -77 -17v18h-75v-587h75v434q0 35 19 59t58 24q37 0 56.5 -25t19.5 -58v-434h75v434q0 35 19 59t58 24q38 0 57 -24.5t19 -58.5v-434h75z" />
    <glyph glyph-name="n.alt" 
d="M343 0v434q0 59 -37 105.5t-114 46.5q-44 0 -77 -17v18h-75v-587h75v434q0 35 19 59t58 24q37 0 56.5 -25t19.5 -58v-434h75z" />
    <glyph glyph-name="p.alt" 
d="M120 -129v137q30 -18 71 -18q77 0 114.5 47.5t37.5 106.5v292q0 59 -38 106t-114 47q-43 0 -71 -16v7h-80v-709h80zM266 435v-290q0 -34 -19 -59t-56 -25q-38 0 -56 33q-15 27 -15 63v308q1 0 1 1l3 6q6 10 6 11q14 20 26 28.5t35 8.5q37 0 56 -25.5t19 -59.5z" />
    <glyph glyph-name="q.alt" 
d="M263 572q-30 17 -70 17q-76 0 -114.5 -47t-38.5 -106v-292q0 -59 38 -106.5t115 -47.5q37 0 70 18v-137h80v709h-80v-8zM263 464v-307q0 -36 -15 -63q-20 -33 -55 -33q-38 0 -57 24.5t-19 59.5v290q0 35 19 60t57 25q17 0 29.5 -7t18.5 -15t17 -25q0 -2 3 -5z" />
    <glyph glyph-name="r.alt" 
d="M268 405h75v33q0 57 -38.5 102.5t-112.5 45.5q-44 0 -77 -17v18h-75v-587h75v434q0 35 19 59t58 24q35 0 55.5 -24t20.5 -55v-33z" />
    <glyph glyph-name="u.alt" 
d="M343 587h-75v-445q0 -33 -20 -58.5t-56 -25.5q-37 0 -57 25.5t-20 58.5v445h-75v-445q0 -59 38 -106.5t114 -47.5q41 0 76 19v-7h75v587z" />
    <glyph glyph-name="_FSHallmark" horiz-adv-x="828" 
d="M788 661v-88h-747v88h747zM627 155q-34 0 -61 8q-33 9 -52 24q-25 20 -38 43q-15 27 -15 60l87 -2q0 -4 6 -15q1 -9 12 -22q9 -11 22 -15q15 -10 43 -10t48 11q16 8 16 24q0 28 -71 41q-63 18 -108 41t-45 73q0 41 30 68q23 20 65 37q54 6 61 6q42 0 84 -17
q45 -18 61 -59q9 -24 9 -44h-89q0 11 -7 21q-8 10 -17 15l-9 4.5t-12 4.5q-3 0 -10.5 2t-11.5 2q-17 0 -41 -13q-18 -10 -18 -27q0 -27 17 -36q26 -11 38 -13l33 -9l27 -7q4 0 13 -2.5t14 -2.5q17 -4 21 -7l18 -8q21 -14 29 -24q10 -21 11 -41q1 -21 -9 -44q-21 -37 -67 -54
q-36 -13 -84 -13zM139 275v-120h-98v371h314v-83h-216v-85h181v-83h-181zM392 157q-17 0 -29 14q-16 13 -16 29q0 19 14 31q12 12 31 12q20 0 36 -13q15 -13 15 -30t-15 -32q-15 -11 -36 -11zM787 109v-88h-747v88h747z" />
    <glyph glyph-name="_Fontastica" horiz-adv-x="627" 
d="M131 270v-154h-89l-2 5v530h397v-79h-306v-221h306v-81h-306zM587 651v-535h-397v83h306v218h-306v85h306v149h91zM62 51v-21h-14v58h42v-12h-28v-13h27v-12h-27zM126 29q-9 0 -16 5q-8 1 -12 10q-4 8 -4 15t4 15q5 8 12 11q6 3 16 3q11 0 15 -3q6 -5 10 -11q6 -6 6 -15
q0 -7 -6 -15q-2 -4 -10 -10q-5 -5 -15 -5zM178 65v-35h-14v58h13l26 -35v35h15v-58h-14zM256 75v-45h-14v45h-18v13h49v-13h-17zM286 41l-3 -11h-16l24 58h16l24 -58h-16l-4 11h-25zM359 29q-5 0 -15 4q-6 1 -12 6l6 11q2 -2 10 -6q6 -3 11 -3q4 0 6 2l1 1v3q-1 1 -1 3l-3 2
q-3 0 -7 2h-5t-6 2l-2 2q-3 2 -4 4q-2 6 -2 10q0 8 2 9l9 6q3 1 12 1q8 0 13 -1q5 -2 10 -5l-6 -12q-5 5 -10 5q-3 1 -9 1h-5l-1 -3q0 -1 1 -3l3 -2q2 0 4 -1t3 -1q2 0 10 -4q6 -4 7 -6q3 -6 3 -9q0 -6 -3 -9q-5 -5 -8 -7q-8 -2 -12 -2zM417 75v-45h-15v45h-17v13h49v-13
h-17zM455 88v-58h-15v58h15zM493 29q-9 0 -15 5q-2 0 -11 10q-5 5 -5 15q0 5 5 15q3 8 11 11t15 3q9 0 14 -2l10 -7l-9 -11q-2 3 -7 6q-6 2 -7 2q-2 0 -8 -2q-2 -1 -5 -6q-2 -2 -2 -9q0 -2 2 -8q2 -5 5 -6q6 -3 8 -3q1 0 3.5 1.5t3.5 1.5q7 3 7 4l9 -9q-3 -3 -11 -7
q-7 -4 -13 -4zM537 41l-6 -11h-14l25 58h15l24 -58h-16l-5 11h-23zM126 41q5 0 8 3q1 1 2 3t2 3q3 3 3 9q0 1 -1.5 4t-1.5 5q0 5 -4 6q-6 2 -8 2q-5 0 -9 -2t-6 -6q-1 -3 -1 -9q0 -8 1 -9q3 -5 6 -6q6 -3 9 -3zM307 52l-9 21l-8 -21h17zM556 52l-8 21l-7 -21h15z" />
    <glyph glyph-name="_www.fontastica.com" horiz-adv-x="1973" 
d="M76 246v-60h-34l-2 1v209h158v-31h-122v-87h122v-32h-122zM257 396v-210h-158v32h122v86h-122v33h122v59h36zM1260 203q-21 0 -43 8q-23 8 -38 20l18 36q10 -9 32 -19q18 -8 31 -8q10 0 16 4q7 4 7 11t-5 10q-3 2 -11 6q-4 2 -18 6q-28 9 -31 10q-15 6 -20 15
q-7 10 -7 28q0 17 8 28q7 10 25 19q14 7 36 7q12 0 38 -6q15 -4 32 -14l-17 -36q-15 8 -30 13q-13 5 -27 5q-8 0 -13 -3t-5 -9q0 -5 4 -9q6 -6 11 -7q1 0 7 -2.5t11 -3.5q20 -5 31 -10q16 -9 20 -16q8 -11 8 -29q0 -17 -9 -29q-8 -11 -26 -19q-15 -6 -35 -6zM553 202
q-27 0 -48 12q-22 13 -34 33q-12 21 -12 46t12 46q11 19 34 32q21 12 48 12t49 -12t33 -32q12 -21 12 -46t-12 -46t-33 -33q-22 -12 -49 -12zM1666 202q-25 0 -46 12q-19 11 -33 33q-12 19 -12 46q0 25 12 46q11 20 33 32t48 12q23 0 39 -8q21 -10 31 -22l-26 -32
q-8 11 -20 17t-23 6q-13 0 -24 -6q-15 -9 -18 -18q-6 -16 -6 -26q0 -16 6 -26q6 -9 18 -18q10 -7 24 -7q12 0 22 5q12 6 21 15l27 -28q-15 -15 -34 -24t-39 -9zM364 268v-62h-45v174h130v-36h-85v-39h78v-37h-78zM713 310v-104h-43v174h40l80 -105l-1 105h43v-174h-40z
M948 343v-137h-45v137h-52v37h150v-37h-53zM1041 236l-12 -30h-47l75 174h47l73 -174h-48l-12 30h-76zM1436 343v-137h-46v137h-52v37h150v-37h-52zM1552 380v-174h-45v174h45zM1797 236l-12 -30h-47l75 174h47l73 -174h-49l-11 30h-76zM554 241q12 0 24 7q6 4 16 19
q7 11 7 26q0 7 -7 26q-5 13 -16 19t-24 6q-14 0 -24 -6q-12 -8 -18 -19q-6 -12 -6 -26t6 -26q5 -10 18 -19q10 -7 24 -7zM1103 271l-23 63l-25 -63h48zM1859 271l-24 63l-24 -63h48z" />
    </font>
</defs>
</svg>
